<?xml version="1.0" encoding="UTF-8" standalone="no"?>
<svg
   width="250"
   height="250"
   viewBox="0 0 250 250"
   version="1.1"
   id="svg1"
   sodipodi:docname="bild1.svg"
   inkscape:version="1.3.2 (091e20e, 2023-11-25, custom)"
   xml:space="preserve"
   xmlns:inkscape="http://www.inkscape.org/namespaces/inkscape"
   xmlns:sodipodi="http://sodipodi.sourceforge.net/DTD/sodipodi-0.dtd"
   xmlns="http://www.w3.org/2000/svg"
   xmlns:svg="http://www.w3.org/2000/svg"><sodipodi:namedview
     id="namedview1"
     pagecolor="#505050"
     bordercolor="#eeeeee"
     borderopacity="1"
     inkscape:showpageshadow="0"
     inkscape:pageopacity="0"
     inkscape:pagecheckerboard="true"
     inkscape:deskcolor="#505050"
     inkscape:zoom="1"
     inkscape:cx="139.5"
     inkscape:cy="212.99999"
     inkscape:window-width="1920"
     inkscape:window-height="1017"
     inkscape:window-x="-8"
     inkscape:window-y="-8"
     inkscape:window-maximized="1"
     inkscape:current-layer="svg1"
     showgrid="true"
     shape-rendering="crispEdges"
     inkscape:clip-to-page="false"><inkscape:grid
       id="grid2"
       units="px"
       originx="0"
       originy="0"
       spacingx="1"
       spacingy="1"
       empcolor="#0099e5"
       empopacity="0.30196078"
       color="#0099e5"
       opacity="0.14901961"
       empspacing="5"
       dotted="false"
       gridanglex="30"
       gridanglez="30"
       visible="true" /><inkscape:page
       x="0"
       y="0"
       width="500"
       height="500"
       id="page1"
       margin="0"
       bleed="0" /><inkscape:page
       x="510"
       y="0"
       width="1122.6667"
       height="793.33331"
       id="page2"
       margin="0"
       bleed="0" /></sodipodi:namedview><defs
     id="defs1"><clipPath
       clipPathUnits="userSpaceOnUse"
       id="clipPath37"><path
         d="M 5570,0 H 25929 V 44550 H 5570 V 0"
         transform="translate(-1.3227513e-4,0.00132275)"
         id="path37" /></clipPath><clipPath
       clipPathUnits="userSpaceOnUse"
       id="clipPath40"><path
         d="M 5570,0 H 25929 V 44550 H 5570 V 0"
         transform="translate(-1.3227513e-4,0.00132275)"
         id="path40" /></clipPath><clipPath
       clipPathUnits="userSpaceOnUse"
       id="clipPath83"><path
         d="M 5570,0 H 25929 V 44550 H 5570 V 0"
         transform="translate(-1.3227513e-4,0.00132275)"
         id="path83" /></clipPath><clipPath
       clipPathUnits="userSpaceOnUse"
       id="clipPath85"><path
         d="M 5570,0 H 25929 V 44550 H 5570 V 0"
         transform="translate(-1.3227513e-4,0.00132275)"
         id="path85" /></clipPath><clipPath
       clipPathUnits="userSpaceOnUse"
       id="clipPath87"><path
         d="M 5570,0 H 25929 V 44550 H 5570 V 0"
         transform="translate(-1.3227513e-4,0.00132275)"
         id="path87" /></clipPath><clipPath
       clipPathUnits="userSpaceOnUse"
       id="clipPath89"><path
         d="M 5570,0 H 25929 V 44550 H 5570 V 0"
         transform="translate(-1.3227513e-4,0.00132275)"
         id="path89" /></clipPath><clipPath
       clipPathUnits="userSpaceOnUse"
       id="clipPath91"><path
         d="M 5570,0 H 25929 V 44550 H 5570 V 0"
         transform="translate(-1.3227513e-4,0.00132275)"
         id="path91" /></clipPath><clipPath
       clipPathUnits="userSpaceOnUse"
       id="clipPath93"><path
         d="M 5570,0 H 25929 V 44550 H 5570 V 0"
         transform="translate(-1.3227513e-4,0.00132275)"
         id="path93" /></clipPath><clipPath
       clipPathUnits="userSpaceOnUse"
       id="clipPath95"><path
         d="M 5570,0 H 25929 V 44550 H 5570 V 0"
         transform="translate(-1.3227513e-4,0.00132275)"
         id="path95" /></clipPath><clipPath
       clipPathUnits="userSpaceOnUse"
       id="clipPath97"><path
         d="M 5570,0 H 25929 V 44550 H 5570 V 0"
         transform="translate(-1.3227513e-4,0.00132275)"
         id="path97" /></clipPath><clipPath
       clipPathUnits="userSpaceOnUse"
       id="clipPath99"><path
         d="M 5570,0 H 25929 V 44550 H 5570 V 0"
         transform="translate(-1.3227513e-4,0.00132275)"
         id="path99" /></clipPath><clipPath
       clipPathUnits="userSpaceOnUse"
       id="clipPath101"><path
         d="M 5570,0 H 25929 V 44550 H 5570 V 0"
         transform="translate(-1.3227513e-4,0.00132275)"
         id="path101" /></clipPath><clipPath
       clipPathUnits="userSpaceOnUse"
       id="clipPath103"><path
         d="M 5570,0 H 25929 V 44550 H 5570 V 0"
         transform="translate(-1.3227513e-4,0.00132275)"
         id="path103" /></clipPath><clipPath
       clipPathUnits="userSpaceOnUse"
       id="clipPath105"><path
         d="M 5570,0 H 25929 V 44550 H 5570 V 0"
         transform="translate(-1.3227513e-4,0.00132275)"
         id="path105" /></clipPath><clipPath
       clipPathUnits="userSpaceOnUse"
       id="clipPath107"><path
         d="M 5570,0 H 25929 V 44550 H 5570 V 0"
         transform="translate(-1.3227513e-4,0.00132275)"
         id="path107" /></clipPath><clipPath
       clipPathUnits="userSpaceOnUse"
       id="clipPath109"><path
         d="M 5570,0 H 25929 V 44550 H 5570 V 0"
         transform="translate(-1.3227513e-4,0.00132275)"
         id="path109" /></clipPath><clipPath
       clipPathUnits="userSpaceOnUse"
       id="clipPath111"><path
         d="M 5570,0 H 25929 V 44550 H 5570 V 0"
         transform="translate(-1.3227513e-4,0.00132275)"
         id="path111" /></clipPath><clipPath
       clipPathUnits="userSpaceOnUse"
       id="clipPath113"><path
         d="M 5570,0 H 25929 V 44550 H 5570 V 0"
         transform="translate(-1.3227513e-4,0.00132275)"
         id="path113" /></clipPath><clipPath
       clipPathUnits="userSpaceOnUse"
       id="clipPath115"><path
         d="M 5570,0 H 25929 V 44550 H 5570 V 0"
         transform="translate(-1.3227513e-4,0.00132275)"
         id="path115" /></clipPath><clipPath
       clipPathUnits="userSpaceOnUse"
       id="clipPath117"><path
         d="M 5570,0 H 25929 V 44550 H 5570 V 0"
         transform="translate(-1.3227513e-4,0.00132275)"
         id="path117" /></clipPath><clipPath
       clipPathUnits="userSpaceOnUse"
       id="clipPath119"><path
         d="M 5570,0 H 25929 V 44550 H 5570 V 0"
         transform="translate(-1.3227513e-4,0.00132275)"
         id="path119" /></clipPath><clipPath
       clipPathUnits="userSpaceOnUse"
       id="clipPath121"><path
         d="M 5570,0 H 25929 V 44550 H 5570 V 0"
         transform="translate(-1.3227513e-4,0.00132275)"
         id="path121" /></clipPath><clipPath
       clipPathUnits="userSpaceOnUse"
       id="clipPath123"><path
         d="M 5570,0 H 25929 V 44550 H 5570 V 0"
         transform="translate(-1.3227513e-4,0.00132275)"
         id="path123" /></clipPath><clipPath
       clipPathUnits="userSpaceOnUse"
       id="clipPath125"><path
         d="M 5570,0 H 25929 V 44550 H 5570 V 0"
         transform="translate(-1.3227513e-4,0.00132275)"
         id="path125" /></clipPath><clipPath
       clipPathUnits="userSpaceOnUse"
       id="clipPath127"><path
         d="M 5570,0 H 25929 V 44550 H 5570 V 0"
         transform="translate(-1.3227513e-4,0.00132275)"
         id="path127" /></clipPath><clipPath
       clipPathUnits="userSpaceOnUse"
       id="clipPath129"><path
         d="M 5570,0 H 25929 V 44550 H 5570 V 0"
         transform="translate(-1.3227513e-4,0.00132275)"
         id="path129" /></clipPath><clipPath
       clipPathUnits="userSpaceOnUse"
       id="clipPath131"><path
         d="M 5570,0 H 25929 V 44550 H 5570 V 0"
         transform="translate(-1.3227513e-4,0.00132275)"
         id="path131" /></clipPath><clipPath
       clipPathUnits="userSpaceOnUse"
       id="clipPath133"><path
         d="M 5570,0 H 25929 V 44550 H 5570 V 0"
         transform="translate(-1.3227513e-4,0.00132275)"
         id="path133" /></clipPath><clipPath
       clipPathUnits="userSpaceOnUse"
       id="clipPath135"><path
         d="M 5570,0 H 25929 V 44550 H 5570 V 0"
         transform="translate(-1.3227513e-4,0.00132275)"
         id="path135" /></clipPath><clipPath
       clipPathUnits="userSpaceOnUse"
       id="clipPath137"><path
         d="M 5570,0 H 25929 V 44550 H 5570 V 0"
         transform="translate(-1.3227513e-4,0.00132275)"
         id="path137" /></clipPath><clipPath
       clipPathUnits="userSpaceOnUse"
       id="clipPath139"><path
         d="M 5570,0 H 25929 V 44550 H 5570 V 0"
         transform="translate(-1.3227513e-4,0.00132275)"
         id="path139" /></clipPath><clipPath
       clipPathUnits="userSpaceOnUse"
       id="clipPath141"><path
         d="M 5570,0 H 25929 V 44550 H 5570 V 0"
         transform="translate(-1.3227513e-4,0.00132275)"
         id="path141" /></clipPath><clipPath
       clipPathUnits="userSpaceOnUse"
       id="clipPath143"><path
         d="M 5570,0 H 25929 V 44550 H 5570 V 0"
         transform="translate(-1.3227513e-4,0.00132275)"
         id="path143" /></clipPath><clipPath
       clipPathUnits="userSpaceOnUse"
       id="clipPath145"><path
         d="M 5570,0 H 25929 V 44550 H 5570 V 0"
         transform="translate(-1.3227513e-4,0.00132275)"
         id="path145" /></clipPath><clipPath
       clipPathUnits="userSpaceOnUse"
       id="clipPath147"><path
         d="M 5570,0 H 25929 V 44550 H 5570 V 0"
         transform="translate(-1.3227513e-4,0.00132275)"
         id="path147" /></clipPath><clipPath
       clipPathUnits="userSpaceOnUse"
       id="clipPath149"><path
         d="M 5570,0 H 25929 V 44550 H 5570 V 0"
         transform="translate(-1.3227513e-4,0.00132275)"
         id="path149" /></clipPath><clipPath
       clipPathUnits="userSpaceOnUse"
       id="clipPath151"><path
         d="M 5570,0 H 25929 V 44550 H 5570 V 0"
         transform="translate(-1.3227513e-4,0.00132275)"
         id="path151" /></clipPath><clipPath
       clipPathUnits="userSpaceOnUse"
       id="clipPath153"><path
         d="M 5570,0 H 25929 V 44550 H 5570 V 0"
         transform="translate(-1.3227513e-4,0.00132275)"
         id="path153" /></clipPath><clipPath
       clipPathUnits="userSpaceOnUse"
       id="clipPath155"><path
         d="M 5570,0 H 25929 V 44550 H 5570 V 0"
         transform="translate(-1.3227513e-4,0.00132275)"
         id="path155" /></clipPath><clipPath
       clipPathUnits="userSpaceOnUse"
       id="clipPath157"><path
         d="M 5570,0 H 25929 V 44550 H 5570 V 0"
         transform="translate(-1.3227513e-4,0.00132275)"
         id="path157" /></clipPath><clipPath
       clipPathUnits="userSpaceOnUse"
       id="clipPath159"><path
         d="M 5570,0 H 25929 V 44550 H 5570 V 0"
         transform="translate(-1.3227513e-4,0.00132275)"
         id="path159" /></clipPath><clipPath
       clipPathUnits="userSpaceOnUse"
       id="clipPath161"><path
         d="M 5570,0 H 25929 V 44550 H 5570 V 0"
         transform="translate(-1.3227513e-4,0.00132275)"
         id="path161" /></clipPath><clipPath
       clipPathUnits="userSpaceOnUse"
       id="clipPath163"><path
         d="M 5570,0 H 25929 V 44550 H 5570 V 0"
         transform="translate(-1.3227513e-4,0.00132275)"
         id="path163" /></clipPath><clipPath
       clipPathUnits="userSpaceOnUse"
       id="clipPath165"><path
         d="M 5570,0 H 25929 V 44550 H 5570 V 0"
         transform="translate(-1.3227513e-4,0.00132275)"
         id="path165" /></clipPath><clipPath
       clipPathUnits="userSpaceOnUse"
       id="clipPath167"><path
         d="M 5570,0 H 25929 V 44550 H 5570 V 0"
         transform="translate(-1.3227513e-4,0.00132275)"
         id="path167" /></clipPath><clipPath
       clipPathUnits="userSpaceOnUse"
       id="clipPath169"><path
         d="M 5570,0 H 25929 V 44550 H 5570 V 0"
         transform="translate(-1.3227513e-4,0.00132275)"
         id="path169" /></clipPath><clipPath
       clipPathUnits="userSpaceOnUse"
       id="clipPath171"><path
         d="M 5570,0 H 25929 V 44550 H 5570 V 0"
         transform="translate(-1.3227513e-4,0.00132275)"
         id="path171" /></clipPath><clipPath
       clipPathUnits="userSpaceOnUse"
       id="clipPath173"><path
         d="M 5570,0 H 25929 V 44550 H 5570 V 0"
         transform="translate(-1.3227513e-4,0.00132275)"
         id="path173" /></clipPath></defs><!-- Vit bakgrund --><rect
     width="100%"
     height="100%"
     fill="#ffffff"
     id="rect1"
     x="0"
     y="0"
     sodipodi:insensitive="true" /><!-- FG i nedre h&#246;gra h&#246;rnet --><!-- Horisontell svart linje centrerad 30px fr&#229;n nederkant --><g
     inkscape:groupmode="layer"
     id="layer1"
     inkscape:label="Layer 1" /><path
     id="path1"
     d="M -120.60852,39.864916 H -357.03748"
     style="fill:none;stroke:#000000;stroke-width:2.07711713;stroke-linecap:round;stroke-linejoin:round;stroke-miterlimit:10;stroke-dasharray:none;stroke-opacity:1"
     transform="matrix(0.962873 0 0 0.962873 479.956 -34.7584)" /><path
     id="path2"
     d="M -133.73494,52.99134 H -343.88039"
     style="fill:none;stroke:#000000;stroke-width:2.07711713;stroke-linecap:round;stroke-linejoin:round;stroke-miterlimit:10;stroke-dasharray:none;stroke-opacity:1"
     transform="matrix(0.962873 0 0 0.962873 479.956 -34.7584)" /><path
     id="path3"
     d="m -340.32276,56.579638 h 202.99952"
     style="fill:none;stroke:#000000;stroke-width:2.07711713;stroke-linecap:round;stroke-linejoin:round;stroke-miterlimit:10;stroke-dasharray:none;stroke-opacity:1"
     transform="matrix(0.962873 0 0 0.962873 479.956 -34.7584)" /><path
     id="path4"
     d="M -120.60852,551.61141 H -357.03748"
     style="fill:none;stroke:#000000;stroke-width:2.07711713;stroke-linecap:round;stroke-linejoin:round;stroke-miterlimit:10;stroke-dasharray:none;stroke-opacity:1"
     transform="matrix(0.962873 0 0 0.962873 479.956 -34.7584)" /><path
     id="path5"
     d="M -137.32324,548.51382 H -340.32276"
     style="fill:none;stroke:#000000;stroke-width:2.07711713;stroke-linecap:round;stroke-linejoin:round;stroke-miterlimit:10;stroke-dasharray:none;stroke-opacity:1"
     transform="matrix(0.962873 0 0 0.962873 479.956 -34.7584)" /><path
     id="path7"
     d="M -357.03748,39.864916 V 551.61141"
     style="fill:none;stroke:#000000;stroke-width:2.07711713;stroke-linecap:round;stroke-linejoin:round;stroke-miterlimit:10;stroke-dasharray:none;stroke-opacity:1"
     transform="matrix(0.962873 0 0 0.962873 479.956 -34.7584)" /><path
     id="path8"
     d="M -343.88039,52.99134 V 551.61141"
     style="fill:none;stroke:#000000;stroke-width:2.07711713;stroke-linecap:round;stroke-linejoin:round;stroke-miterlimit:10;stroke-dasharray:none;stroke-opacity:1"
     transform="matrix(0.962873 0 0 0.962873 479.956 -34.7584)" /><path
     id="path9"
     d="M -340.32276,133.46736 V 474.47834"
     style="fill:none;stroke:#000000;stroke-width:2.07711713;stroke-linecap:round;stroke-linejoin:round;stroke-miterlimit:10;stroke-dasharray:none;stroke-opacity:1"
     transform="matrix(0.962873 0 0 0.962873 479.956 -34.7584)" /><path
     id="path10"
     d="m -340.32276,503.12339 v 45.39043"
     style="fill:none;stroke:#000000;stroke-width:2.07711713;stroke-linecap:round;stroke-linejoin:round;stroke-miterlimit:10;stroke-dasharray:none;stroke-opacity:1"
     transform="matrix(0.962873 0 0 0.962873 479.956 -34.7584)" /><path
     id="path11"
     d="m -338.63596,488.80086 v 14.32253"
     style="fill:none;stroke:#000000;stroke-width:2.07711713;stroke-linecap:round;stroke-linejoin:round;stroke-miterlimit:10;stroke-dasharray:none;stroke-opacity:1"
     transform="matrix(0.962873 0 0 0.962873 479.956 -34.7584)" /><path
     id="path12"
     d="m -338.63596,488.80086 h -4.29369 v 14.32253 h 4.29369"
     style="fill:none;stroke:#000000;stroke-width:2.07711713;stroke-linecap:round;stroke-linejoin:round;stroke-miterlimit:10;stroke-dasharray:none;stroke-opacity:1"
     transform="matrix(0.962873 0 0 0.962873 479.956 -34.7584)" /><path
     id="path13"
     d="m -336.48911,488.80086 v -14.32252 h -2.14685 -4.29369 v 14.32252"
     style="fill:none;stroke:#000000;stroke-width:2.07711713;stroke-linecap:round;stroke-linejoin:round;stroke-miterlimit:10;stroke-dasharray:none;stroke-opacity:1"
     transform="matrix(0.962873 0 0 0.962873 479.956 -34.7584)" /><path
     id="path14"
     d="m -338.63596,474.47834 v 14.32252 h 2.14685"
     style="fill:none;stroke:#000000;stroke-width:2.07711713;stroke-linecap:round;stroke-linejoin:round;stroke-miterlimit:10;stroke-dasharray:none;stroke-opacity:1"
     transform="matrix(0.962873 0 0 0.962873 479.956 -34.7584)" /><path
     id="path15"
     d="m -342.92965,104.82231 v 14.32252"
     style="fill:none;stroke:#000000;stroke-width:2.07711713;stroke-linecap:round;stroke-linejoin:round;stroke-miterlimit:10;stroke-dasharray:none;stroke-opacity:1"
     transform="matrix(0.962873 0 0 0.962873 479.956 -34.7584)" /><path
     id="path16"
     d="M -336.48911,119.14483 V 104.82231"
     style="fill:none;stroke:#000000;stroke-width:2.07711713;stroke-linecap:round;stroke-linejoin:round;stroke-miterlimit:10;stroke-dasharray:none;stroke-opacity:1"
     transform="matrix(0.962873 0 0 0.962873 479.956 -34.7584)" /><path
     id="path17"
     d="m -338.63596,104.82231 v 14.32252"
     style="fill:none;stroke:#000000;stroke-width:2.07711713;stroke-linecap:round;stroke-linejoin:round;stroke-miterlimit:10;stroke-dasharray:none;stroke-opacity:1"
     transform="matrix(0.962873 0 0 0.962873 479.956 -34.7584)" /><path
     id="path18"
     d="m -342.92965,119.14483 h 6.44054"
     style="fill:none;stroke:#000000;stroke-width:2.07711713;stroke-linecap:round;stroke-linejoin:round;stroke-miterlimit:10;stroke-dasharray:none;stroke-opacity:1"
     transform="matrix(0.962873 0 0 0.962873 479.956 -34.7584)" /><path
     id="path19"
     d="m -342.92965,119.14483 v 14.32253 h 4.29369 v -14.32253"
     style="fill:none;stroke:#000000;stroke-width:2.07711713;stroke-linecap:round;stroke-linejoin:round;stroke-miterlimit:10;stroke-dasharray:none;stroke-opacity:1"
     transform="matrix(0.962873 0 0 0.962873 479.956 -34.7584)" /><path
     id="path20"
     d="M -340.32276,56.579638 V 104.82231"
     style="fill:none;stroke:#000000;stroke-width:2.07711713;stroke-linecap:round;stroke-linejoin:round;stroke-miterlimit:10;stroke-dasharray:none;stroke-opacity:1"
     transform="matrix(0.962873 0 0 0.962873 479.956 -34.7584)" /><path
     id="path21"
     d="m -336.48911,104.82231 h -6.44054"
     style="fill:none;stroke:#000000;stroke-width:2.07711713;stroke-linecap:round;stroke-linejoin:round;stroke-miterlimit:10;stroke-dasharray:none;stroke-opacity:1"
     transform="matrix(0.962873 0 0 0.962873 479.956 -34.7584)" /><path
     id="path22"
     d="m -357.03748,39.864916 16.9294,16.714722"
     style="fill:none;stroke:#000000;stroke-width:2.07711713;stroke-linecap:round;stroke-linejoin:round;stroke-miterlimit:10;stroke-dasharray:none;stroke-opacity:1"
     transform="matrix(0.962873 0 0 0.962873 479.956 -34.7584)" /><path
     id="path23"
     d="M -120.60852,551.61141 V 39.864916"
     style="fill:none;stroke:#000000;stroke-width:2.07711713;stroke-linecap:round;stroke-linejoin:round;stroke-miterlimit:10;stroke-dasharray:none;stroke-opacity:1"
     transform="matrix(0.962873 0 0 0.962873 479.956 -34.7584)" /><path
     id="path24"
     d="M -133.73494,551.61141 V 52.99134"
     style="fill:none;stroke:#000000;stroke-width:2.07711713;stroke-linecap:round;stroke-linejoin:round;stroke-miterlimit:10;stroke-dasharray:none;stroke-opacity:1"
     transform="matrix(0.962873 0 0 0.962873 479.956 -34.7584)" /><path
     id="path25"
     d="M -137.32324,548.51382 V 56.579638"
     style="fill:none;stroke:#000000;stroke-width:2.07711713;stroke-linecap:round;stroke-linejoin:round;stroke-miterlimit:10;stroke-dasharray:none;stroke-opacity:1"
     transform="matrix(0.962873 0 0 0.962873 479.956 -34.7584)" /><path
     id="path26"
     d="M -152.71918,319.8135 H -174.2183"
     style="fill:none;stroke:#000000;stroke-width:2.07711713;stroke-linecap:round;stroke-linejoin:round;stroke-miterlimit:10;stroke-dasharray:none;stroke-opacity:1"
     transform="matrix(0.962873 0 0 0.962873 479.956 -34.7584)" /><path
     id="path27"
     d="M -152.71918,314.32371 H -174.2183"
     style="fill:none;stroke:#000000;stroke-width:2.07711713;stroke-linecap:round;stroke-linejoin:round;stroke-miterlimit:10;stroke-dasharray:none;stroke-opacity:1"
     transform="matrix(0.962873 0 0 0.962873 479.956 -34.7584)" /><path
     id="path28"
     d="m -176.6105,317.4213 0.0613,0.52138 0.18401,0.52137 0.27603,0.46004 0.3987,0.36803 0.42937,0.27602 0.52137,0.18402 0.52138,0.0613"
     style="fill:none;stroke:#000000;stroke-width:2.07711713;stroke-linecap:round;stroke-linejoin:round;stroke-miterlimit:10;stroke-dasharray:none;stroke-opacity:1"
     transform="matrix(0.962873 0 0 0.962873 479.956 -34.7584)" /><path
     id="path29"
     d="m -174.2183,314.32371 -0.52138,0.0613 -0.52137,0.18401 -0.42937,0.27603 -0.3987,0.36803 -0.27603,0.46003 -0.18401,0.49071 -0.0613,0.55205"
     style="fill:none;stroke:#000000;stroke-width:2.07711713;stroke-linecap:round;stroke-linejoin:round;stroke-miterlimit:10;stroke-dasharray:none;stroke-opacity:1"
     transform="matrix(0.962873 0 0 0.962873 479.956 -34.7584)" /><path
     id="path30"
     d="m -146.64668,290.70841 -0.0613,-0.82806 -0.15334,-0.82807 -0.3067,-0.7974 -0.39869,-0.76673 -0.52138,-0.67473 -0.61339,-0.61338 -0.67472,-0.49071 -0.73606,-0.42937 -0.7974,-0.27602 -0.85874,-0.18401 -0.82807,-0.0613 -0.85873,0.0613 -0.82807,0.18401 -0.7974,0.27602 -0.76673,0.42937 -0.67473,0.49071 -0.58271,0.61338 -0.52138,0.67473 -0.3987,0.76673 -0.30669,0.7974 -0.18401,0.82807 -0.0613,0.82806 0.0613,0.85874 0.18401,0.82807 0.30669,0.7974 0.3987,0.76673 0.52138,0.67472 0.58271,0.61339 0.67473,0.49071 0.76673,0.42936 0.7974,0.27603 0.82807,0.18401 0.85873,0.0613 0.82807,-0.0613 0.85874,-0.18401 0.7974,-0.27603 0.73606,-0.42936 0.67472,-0.49071 0.61339,-0.61339 0.52138,-0.67472 0.39869,-0.76673 0.3067,-0.7974 0.15334,-0.82807 0.0613,-0.85874"
     style="fill:none;stroke:#000000;stroke-width:2.07711713;stroke-linecap:round;stroke-linejoin:round;stroke-miterlimit:10;stroke-dasharray:none;stroke-opacity:1"
     transform="matrix(0.962873 0 0 0.962873 479.956 -34.7584)" /><path
     id="path31"
     d="m -152.71918,319.8135 0.52137,-0.0613 0.52138,-0.18402 0.42937,-0.27602 0.3987,-0.36803 0.27602,-0.46004 0.18402,-0.52137 0.0613,-0.52138"
     style="fill:none;stroke:#000000;stroke-width:2.07711713;stroke-linecap:round;stroke-linejoin:round;stroke-miterlimit:10;stroke-dasharray:none;stroke-opacity:1"
     transform="matrix(0.962873 0 0 0.962873 479.956 -34.7584)" /><path
     id="path32"
     d="m -157.99429,319.8135 0.42937,0.73606 0.52138,0.67472 0.64405,0.61339 0.67472,0.4907 0.76673,0.3987 0.82807,0.27603 0.82807,0.15334 0.85874,0.0307 0.85874,-0.0613 0.82807,-0.21468 0.7974,-0.33736 0.73606,-0.42937 0.67472,-0.55205 0.58272,-0.61338 0.4907,-0.70539 0.3987,-0.76673 0.27603,-0.82807 0.12267,-0.82807 0.0307,-0.85874 -0.092,-0.85874 -0.21468,-0.82807 -0.33736,-0.7974 -0.42937,-0.73606 -0.55205,-0.64405 -0.64405,-0.58272 -0.70539,-0.4907 -0.76673,-0.36803 -0.82807,-0.27603 -0.85874,-0.12267 -0.85874,-0.0307 -0.82807,0.12267 -0.82806,0.21469 -0.7974,0.36803 -0.73607,0.42937 -0.64405,0.55204 -0.58271,0.64406 -0.46004,0.73606"
     style="fill:none;stroke:#000000;stroke-width:2.07711713;stroke-linecap:round;stroke-linejoin:round;stroke-miterlimit:10;stroke-dasharray:none;stroke-opacity:1"
     transform="matrix(0.962873 0 0 0.962873 479.956 -34.7584)" /><path
     id="path33"
     d="m -150.32698,317.4213 v -0.70539 l -0.0613,-0.55205 -0.18402,-0.49071 -0.27602,-0.46003 -0.3987,-0.36803 -0.42937,-0.27603 -0.52138,-0.18401 -0.52137,-0.0613"
     style="fill:none;stroke:#000000;stroke-width:2.07711713;stroke-linecap:round;stroke-linejoin:round;stroke-miterlimit:10;stroke-dasharray:none;stroke-opacity:1"
     transform="matrix(0.962873 0 0 0.962873 479.956 -34.7584)" /><path
     id="path34"
     d="m -120.60852,39.864916 -16.9294,16.714722"
     style="fill:none;stroke:#000000;stroke-width:2.07711713;stroke-linecap:round;stroke-linejoin:round;stroke-miterlimit:10;stroke-dasharray:none;stroke-opacity:1"
     transform="matrix(0.962873 0 0 0.962873 479.956 -34.7584)" /><path
     id="path82"
     d="M 21810,75 H 10691"
     style="fill:none;stroke:#000000;stroke-width:38;stroke-linecap:round;stroke-linejoin:round;stroke-miterlimit:10;stroke-dasharray:none;stroke-opacity:1"
     transform="matrix(0 -0.0252 -0.0252 0 1632.67 793.333)"
     clip-path="url(#clipPath83)" /><path
     id="path84"
     d="M 8277,3790 H 24317"
     style="fill:none;stroke:#000000;stroke-width:38;stroke-linecap:round;stroke-linejoin:round;stroke-miterlimit:10;stroke-dasharray:none;stroke-opacity:1"
     transform="matrix(0 -0.0252 -0.0252 0 1632.67 793.333)"
     clip-path="url(#clipPath85)" /><path
     id="path86"
     d="M 8277,3969 H 24317"
     style="fill:none;stroke:#000000;stroke-width:38;stroke-linecap:round;stroke-linejoin:round;stroke-miterlimit:10;stroke-dasharray:none;stroke-opacity:1"
     transform="matrix(0 -0.0252 -0.0252 0 1632.67 793.333)"
     clip-path="url(#clipPath87)" /><path
     id="path88"
     d="M 21810,11366 H 10691"
     style="fill:none;stroke:#000000;stroke-width:38;stroke-linecap:round;stroke-linejoin:round;stroke-miterlimit:10;stroke-dasharray:none;stroke-opacity:1"
     transform="matrix(0 -0.0252 -0.0252 0 1632.67 793.333)"
     clip-path="url(#clipPath89)" /><path
     id="path90"
     d="M 24434,11483 H 8176"
     style="fill:none;stroke:#000000;stroke-width:38;stroke-linecap:round;stroke-linejoin:round;stroke-miterlimit:10;stroke-dasharray:none;stroke-opacity:1"
     transform="matrix(0 -0.0252 -0.0252 0 1632.67 793.333)"
     clip-path="url(#clipPath91)" /><path
     id="path92"
     d="M 24862,11911 H 8176"
     style="fill:none;stroke:#000000;stroke-width:38;stroke-linecap:round;stroke-linejoin:round;stroke-miterlimit:10;stroke-dasharray:none;stroke-opacity:1"
     transform="matrix(0 -0.0252 -0.0252 0 1632.67 793.333)"
     clip-path="url(#clipPath93)" /><path
     id="path94"
     d="M 8176,0 V 13313"
     style="fill:none;stroke:#000000;stroke-width:38;stroke-linecap:round;stroke-linejoin:round;stroke-miterlimit:10;stroke-dasharray:none;stroke-opacity:1"
     transform="matrix(0 -0.0252 -0.0252 0 1632.67 793.333)"
     clip-path="url(#clipPath95)" /><path
     id="path96"
     d="M 8277,75 V 11366"
     style="fill:none;stroke:#000000;stroke-width:38;stroke-linecap:round;stroke-linejoin:round;stroke-miterlimit:10;stroke-dasharray:none;stroke-opacity:1"
     transform="matrix(0 -0.0252 -0.0252 0 1632.67 793.333)"
     clip-path="url(#clipPath97)" /><path
     id="path98"
     d="M 8176,0 V 11911"
     style="fill:none;stroke:#000000;stroke-width:38;stroke-linecap:round;stroke-linejoin:round;stroke-miterlimit:10;stroke-dasharray:none;stroke-opacity:1"
     transform="matrix(0 -0.0252 -0.0252 0 1632.67 793.333)"
     clip-path="url(#clipPath99)" /><path
     id="path100"
     d="M 9757,11366 H 8277"
     style="fill:none;stroke:#000000;stroke-width:38;stroke-linecap:round;stroke-linejoin:round;stroke-miterlimit:10;stroke-dasharray:none;stroke-opacity:1"
     transform="matrix(0 -0.0252 -0.0252 0 1632.67 793.333)"
     clip-path="url(#clipPath101)" /><path
     id="path102"
     d="m 10691,11311 h -467"
     style="fill:none;stroke:#000000;stroke-width:38;stroke-linecap:round;stroke-linejoin:round;stroke-miterlimit:10;stroke-dasharray:none;stroke-opacity:1"
     transform="matrix(0 -0.0252 -0.0252 0 1632.67 793.333)"
     clip-path="url(#clipPath103)" /><path
     id="path104"
     d="m 10691,11452 h -467"
     style="fill:none;stroke:#000000;stroke-width:38;stroke-linecap:round;stroke-linejoin:round;stroke-miterlimit:10;stroke-dasharray:none;stroke-opacity:1"
     transform="matrix(0 -0.0252 -0.0252 0 1632.67 793.333)"
     clip-path="url(#clipPath105)" /><path
     id="path106"
     d="m 10224,11241 h 467"
     style="fill:none;stroke:#000000;stroke-width:38;stroke-linecap:round;stroke-linejoin:round;stroke-miterlimit:10;stroke-dasharray:none;stroke-opacity:1"
     transform="matrix(0 -0.0252 -0.0252 0 1632.67 793.333)"
     clip-path="url(#clipPath107)" /><path
     id="path108"
     d="M 10224,11452 H 9757"
     style="fill:none;stroke:#000000;stroke-width:38;stroke-linecap:round;stroke-linejoin:round;stroke-miterlimit:10;stroke-dasharray:none;stroke-opacity:1"
     transform="matrix(0 -0.0252 -0.0252 0 1632.67 793.333)"
     clip-path="url(#clipPath109)" /><path
     id="path110"
     d="m 10224,11241 v 70 h -467 v 141"
     style="fill:none;stroke:#000000;stroke-width:38;stroke-linecap:round;stroke-linejoin:round;stroke-miterlimit:10;stroke-dasharray:none;stroke-opacity:1"
     transform="matrix(0 -0.0252 -0.0252 0 1632.67 793.333)"
     clip-path="url(#clipPath111)" /><path
     id="path112"
     d="m 10224,11452 v -141"
     style="fill:none;stroke:#000000;stroke-width:38;stroke-linecap:round;stroke-linejoin:round;stroke-miterlimit:10;stroke-dasharray:none;stroke-opacity:1"
     transform="matrix(0 -0.0252 -0.0252 0 1632.67 793.333)"
     clip-path="url(#clipPath113)" /><path
     id="path114"
     d="m 10691,11241 v 70 141"
     style="fill:none;stroke:#000000;stroke-width:38;stroke-linecap:round;stroke-linejoin:round;stroke-miterlimit:10;stroke-dasharray:none;stroke-opacity:1"
     transform="matrix(0 -0.0252 -0.0252 0 1632.67 793.333)"
     clip-path="url(#clipPath115)" /><path
     id="path116"
     d="M 9757,75 H 8277"
     style="fill:none;stroke:#000000;stroke-width:38;stroke-linecap:round;stroke-linejoin:round;stroke-miterlimit:10;stroke-dasharray:none;stroke-opacity:1"
     transform="matrix(0 -0.0252 -0.0252 0 1632.67 793.333)"
     clip-path="url(#clipPath117)" /><path
     id="path118"
     d="m 10224,200 h 467"
     style="fill:none;stroke:#000000;stroke-width:38;stroke-linecap:round;stroke-linejoin:round;stroke-miterlimit:10;stroke-dasharray:none;stroke-opacity:1"
     transform="matrix(0 -0.0252 -0.0252 0 1632.67 793.333)"
     clip-path="url(#clipPath119)" /><path
     id="path120"
     d="m 10691,130 h -467 v 70"
     style="fill:none;stroke:#000000;stroke-width:38;stroke-linecap:round;stroke-linejoin:round;stroke-miterlimit:10;stroke-dasharray:none;stroke-opacity:1"
     transform="matrix(0 -0.0252 -0.0252 0 1632.67 793.333)"
     clip-path="url(#clipPath121)" /><path
     id="path122"
     d="M 10224,0 V 130"
     style="fill:none;stroke:#000000;stroke-width:38;stroke-linecap:round;stroke-linejoin:round;stroke-miterlimit:10;stroke-dasharray:none;stroke-opacity:1"
     transform="matrix(0 -0.0252 -0.0252 0 1632.67 793.333)"
     clip-path="url(#clipPath123)" /><path
     id="path124"
     d="m 9757,0 v 130 h 467"
     style="fill:none;stroke:#000000;stroke-width:38;stroke-linecap:round;stroke-linejoin:round;stroke-miterlimit:10;stroke-dasharray:none;stroke-opacity:1"
     transform="matrix(0 -0.0252 -0.0252 0 1632.67 793.333)"
     clip-path="url(#clipPath125)" /><path
     id="path126"
     d="M 10691,200 V 130 0"
     style="fill:none;stroke:#000000;stroke-width:38;stroke-linecap:round;stroke-linejoin:round;stroke-miterlimit:10;stroke-dasharray:none;stroke-opacity:1"
     transform="matrix(0 -0.0252 -0.0252 0 1632.67 793.333)"
     clip-path="url(#clipPath127)" /><path
     id="path128"
     d="m 24398,0 -81,82"
     style="fill:none;stroke:#000000;stroke-width:38;stroke-linecap:round;stroke-linejoin:round;stroke-miterlimit:10;stroke-dasharray:none;stroke-opacity:1"
     transform="matrix(0 -0.0252 -0.0252 0 1632.67 793.333)"
     clip-path="url(#clipPath129)" /><path
     id="path130"
     d="m 24862,11911 -545,-545 V 75"
     style="fill:none;stroke:#000000;stroke-width:38;stroke-linecap:round;stroke-linejoin:round;stroke-miterlimit:10;stroke-dasharray:none;stroke-opacity:1"
     transform="matrix(0 -0.0252 -0.0252 0 1632.67 793.333)"
     clip-path="url(#clipPath131)" /><path
     id="path132"
     d="M 24434,0 V 11483"
     style="fill:none;stroke:#000000;stroke-width:38;stroke-linecap:round;stroke-linejoin:round;stroke-miterlimit:10;stroke-dasharray:none;stroke-opacity:1"
     transform="matrix(0 -0.0252 -0.0252 0 1632.67 793.333)"
     clip-path="url(#clipPath133)" /><path
     id="path134"
     d="m 16683,4272 27,2 27,6 26,10 25,13 22,17 20,19 16,23 14,24 9,26 6,27 2,28 -2,28 -6,27 -9,26 -14,24 -16,22 -20,20 -22,17 -25,13 -26,10 -27,6 -27,2 -28,-2 -27,-6 -26,-10 -25,-13 -22,-17 -20,-20 -16,-22 -14,-24 -9,-26 -6,-27 -2,-28 2,-28 6,-27 9,-26 14,-24 16,-23 20,-19 22,-17 25,-13 26,-10 27,-6 28,-2"
     style="fill:none;stroke:#000000;stroke-width:38;stroke-linecap:round;stroke-linejoin:round;stroke-miterlimit:10;stroke-dasharray:none;stroke-opacity:1"
     transform="matrix(0 -0.0252 -0.0252 0 1632.67 793.333)"
     clip-path="url(#clipPath135)" /><path
     id="path136"
     d="m 15913,5172 -2,17 -6,16 -9,15 -12,13 -15,9 -16,6 -18,2"
     style="fill:none;stroke:#000000;stroke-width:38;stroke-linecap:round;stroke-linejoin:round;stroke-miterlimit:10;stroke-dasharray:none;stroke-opacity:1"
     transform="matrix(0 -0.0252 -0.0252 0 1632.67 793.333)"
     clip-path="url(#clipPath137)" /><path
     id="path138"
     d="m 15812,5250 -17,-2 -17,-6 -15,-9 -12,-13 -9,-15 -6,-16 -2,-17"
     style="fill:none;stroke:#000000;stroke-width:38;stroke-linecap:round;stroke-linejoin:round;stroke-miterlimit:10;stroke-dasharray:none;stroke-opacity:1"
     transform="matrix(0 -0.0252 -0.0252 0 1632.67 793.333)"
     clip-path="url(#clipPath139)" /><path
     id="path140"
     d="m 15812,4393 h 23 l 18,2 16,6 15,9 12,12 9,15 6,17 2,17 v 701"
     style="fill:none;stroke:#000000;stroke-width:38;stroke-linecap:round;stroke-linejoin:round;stroke-miterlimit:10;stroke-dasharray:none;stroke-opacity:1"
     transform="matrix(0 -0.0252 -0.0252 0 1632.67 793.333)"
     clip-path="url(#clipPath141)" /><path
     id="path142"
     d="m 15734,4471 v 701"
     style="fill:none;stroke:#000000;stroke-width:38;stroke-linecap:round;stroke-linejoin:round;stroke-miterlimit:10;stroke-dasharray:none;stroke-opacity:1"
     transform="matrix(0 -0.0252 -0.0252 0 1632.67 793.333)"
     clip-path="url(#clipPath143)" /><path
     id="path144"
     d="m 15734,4642 -24,-13 -22,-18 -20,-20 -16,-23 -13,-25 -9,-26 -5,-28 -1,-28 2,-27 7,-28 11,-25 14,-25 18,-21 20,-20 23,-16 25,-12 27,-9 27,-5 28,-1 28,4 27,7 26,11 24,14 21,18 19,21 16,23 12,25 9,27 4,27 1,28 -4,28 -7,27 -12,26 -14,24 -18,21 -21,19 -24,15"
     style="fill:none;stroke:#000000;stroke-width:38;stroke-linecap:round;stroke-linejoin:round;stroke-miterlimit:10;stroke-dasharray:none;stroke-opacity:1"
     transform="matrix(0 -0.0252 -0.0252 0 1632.67 793.333)"
     clip-path="url(#clipPath145)" /><path
     id="path146"
     d="m 15734,4471 2,-17 6,-17 9,-15 12,-12 15,-9 17,-6 17,-2"
     style="fill:none;stroke:#000000;stroke-width:38;stroke-linecap:round;stroke-linejoin:round;stroke-miterlimit:10;stroke-dasharray:none;stroke-opacity:1"
     transform="matrix(0 -0.0252 -0.0252 0 1632.67 793.333)"
     clip-path="url(#clipPath147)" /><path
     id="path148"
     d="M 24317,11366 H 22744"
     style="fill:none;stroke:#000000;stroke-width:38;stroke-linecap:round;stroke-linejoin:round;stroke-miterlimit:10;stroke-dasharray:none;stroke-opacity:1"
     transform="matrix(0 -0.0252 -0.0252 0 1632.67 793.333)"
     clip-path="url(#clipPath149)" /><path
     id="path150"
     d="m 22744,11241 v 211"
     style="fill:none;stroke:#000000;stroke-width:38;stroke-linecap:round;stroke-linejoin:round;stroke-miterlimit:10;stroke-dasharray:none;stroke-opacity:1"
     transform="matrix(0 -0.0252 -0.0252 0 1632.67 793.333)"
     clip-path="url(#clipPath151)" /><path
     id="path152"
     d="m 22277,11452 h -467"
     style="fill:none;stroke:#000000;stroke-width:38;stroke-linecap:round;stroke-linejoin:round;stroke-miterlimit:10;stroke-dasharray:none;stroke-opacity:1"
     transform="matrix(0 -0.0252 -0.0252 0 1632.67 793.333)"
     clip-path="url(#clipPath153)" /><path
     id="path154"
     d="m 22277,11311 h -467 v 141"
     style="fill:none;stroke:#000000;stroke-width:38;stroke-linecap:round;stroke-linejoin:round;stroke-miterlimit:10;stroke-dasharray:none;stroke-opacity:1"
     transform="matrix(0 -0.0252 -0.0252 0 1632.67 793.333)"
     clip-path="url(#clipPath155)" /><path
     id="path156"
     d="m 22277,11452 v -211"
     style="fill:none;stroke:#000000;stroke-width:38;stroke-linecap:round;stroke-linejoin:round;stroke-miterlimit:10;stroke-dasharray:none;stroke-opacity:1"
     transform="matrix(0 -0.0252 -0.0252 0 1632.67 793.333)"
     clip-path="url(#clipPath157)" /><path
     id="path158"
     d="m 22744,11311 h -467"
     style="fill:none;stroke:#000000;stroke-width:38;stroke-linecap:round;stroke-linejoin:round;stroke-miterlimit:10;stroke-dasharray:none;stroke-opacity:1"
     transform="matrix(0 -0.0252 -0.0252 0 1632.67 793.333)"
     clip-path="url(#clipPath159)" /><path
     id="path160"
     d="m 22277,11241 h 467"
     style="fill:none;stroke:#000000;stroke-width:38;stroke-linecap:round;stroke-linejoin:round;stroke-miterlimit:10;stroke-dasharray:none;stroke-opacity:1"
     transform="matrix(0 -0.0252 -0.0252 0 1632.67 793.333)"
     clip-path="url(#clipPath161)" /><path
     id="path162"
     d="m 22744,11452 h -467"
     style="fill:none;stroke:#000000;stroke-width:38;stroke-linecap:round;stroke-linejoin:round;stroke-miterlimit:10;stroke-dasharray:none;stroke-opacity:1"
     transform="matrix(0 -0.0252 -0.0252 0 1632.67 793.333)"
     clip-path="url(#clipPath163)" /><path
     id="path164"
     d="M 24317,75 H 22744"
     style="fill:none;stroke:#000000;stroke-width:38;stroke-linecap:round;stroke-linejoin:round;stroke-miterlimit:10;stroke-dasharray:none;stroke-opacity:1"
     transform="matrix(0 -0.0252 -0.0252 0 1632.67 793.333)"
     clip-path="url(#clipPath165)" /><path
     id="path166"
     d="M 22744,200 V 0"
     style="fill:none;stroke:#000000;stroke-width:38;stroke-linecap:round;stroke-linejoin:round;stroke-miterlimit:10;stroke-dasharray:none;stroke-opacity:1"
     transform="matrix(0 -0.0252 -0.0252 0 1632.67 793.333)"
     clip-path="url(#clipPath167)" /><path
     id="path168"
     d="m 22277,0 v 200 h 467"
     style="fill:none;stroke:#000000;stroke-width:38;stroke-linecap:round;stroke-linejoin:round;stroke-miterlimit:10;stroke-dasharray:none;stroke-opacity:1"
     transform="matrix(0 -0.0252 -0.0252 0 1632.67 793.333)"
     clip-path="url(#clipPath169)" /><path
     id="path170"
     d="m 21810,0 v 130 h 467 467"
     style="fill:none;stroke:#000000;stroke-width:38;stroke-linecap:round;stroke-linejoin:round;stroke-miterlimit:10;stroke-dasharray:none;stroke-opacity:1"
     transform="matrix(0 -0.0252 -0.0252 0 1632.67 793.333)"
     clip-path="url(#clipPath171)" /><path
     id="path172"
     d="M 24862,0 V 11911"
     style="fill:none;stroke:#000000;stroke-width:38;stroke-linecap:round;stroke-linejoin:round;stroke-miterlimit:10;stroke-dasharray:none;stroke-opacity:1"
     transform="matrix(0 -0.0252 -0.0252 0 1632.67 793.333)"
     clip-path="url(#clipPath173)" /><path
     id="path192"
     d="m 19797,4272 28,2 27,6 26,10 24,13 23,17 19,19 17,23 13,24 10,26 6,27 2,28 -2,28 -6,27 -10,26 -13,24 -17,22 -19,20 -23,17 -24,13 -26,10 -27,6 -28,2 -28,-2 -27,-6 -26,-10 -24,-13 -22,-17 -20,-20 -17,-22 -13,-24 -10,-26 -6,-27 -2,-28 2,-28 6,-27 10,-26 13,-24 17,-23 20,-19 22,-17 24,-13 26,-10 27,-6 28,-2"
     style="fill:none;stroke:#000000;stroke-width:38;stroke-linecap:round;stroke-linejoin:round;stroke-miterlimit:10;stroke-dasharray:none;stroke-opacity:1"
     transform="matrix(0 -0.0252 -0.0252 0 1632.67 793.333)" /><path
     id="path174"
     d="m 18414,5424 h 1013"
     style="fill:none;stroke:#000000;stroke-width:75;stroke-linecap:round;stroke-linejoin:round;stroke-miterlimit:10;stroke-dasharray:none;stroke-opacity:1"
     transform="matrix(0 -0.0252 -0.0252 0 1632.67 793.333)" /><path
     id="path175"
     d="m 18414,5352 v 143 l -545,-71 z"
     style="fill:#000000;fill-opacity:1;fill-rule:nonzero;stroke:#000000;stroke-width:1;stroke-linecap:round;stroke-linejoin:miter;stroke-miterlimit:10;stroke-dasharray:none;stroke-opacity:1"
     transform="matrix(0 -0.0252 -0.0252 0 1632.67 793.333)" /><path
     id="path176"
     d="m 18414,2970 h 1013"
     style="fill:none;stroke:#000000;stroke-width:75;stroke-linecap:round;stroke-linejoin:round;stroke-miterlimit:10;stroke-dasharray:none;stroke-opacity:1"
     transform="matrix(0 -0.0252 -0.0252 0 1632.67 793.333)" /><path
     id="path177"
     d="m 18414,3042 v -144 l -545,72 z"
     style="fill:#000000;fill-opacity:1;fill-rule:nonzero;stroke:#000000;stroke-width:1;stroke-linecap:round;stroke-linejoin:miter;stroke-miterlimit:10;stroke-dasharray:none;stroke-opacity:1"
     transform="matrix(0 -0.0252 -0.0252 0 1632.67 793.333)" /><path
     id="path178"
     d="M 17869,5757 V 5368"
     style="fill:none;stroke:#000000;stroke-width:75;stroke-linecap:round;stroke-linejoin:round;stroke-miterlimit:10;stroke-dasharray:none;stroke-opacity:1"
     transform="matrix(0 -0.0252 -0.0252 0 1632.67 793.333)" /><path
     id="path179"
     d="m 17869,5290 v -78"
     style="fill:none;stroke:#000000;stroke-width:75;stroke-linecap:round;stroke-linejoin:round;stroke-miterlimit:10;stroke-dasharray:none;stroke-opacity:1"
     transform="matrix(0 -0.0252 -0.0252 0 1632.67 793.333)" /><path
     id="path180"
     d="M 17869,5134 V 4823"
     style="fill:none;stroke:#000000;stroke-width:75;stroke-linecap:round;stroke-linejoin:round;stroke-miterlimit:10;stroke-dasharray:none;stroke-opacity:1"
     transform="matrix(0 -0.0252 -0.0252 0 1632.67 793.333)" /><path
     id="path181"
     d="m 17869,4745 v -78"
     style="fill:none;stroke:#000000;stroke-width:75;stroke-linecap:round;stroke-linejoin:round;stroke-miterlimit:10;stroke-dasharray:none;stroke-opacity:1"
     transform="matrix(0 -0.0252 -0.0252 0 1632.67 793.333)" /><path
     id="path182"
     d="M 17869,4589 V 4200"
     style="fill:none;stroke:#000000;stroke-width:75;stroke-linecap:round;stroke-linejoin:round;stroke-miterlimit:10;stroke-dasharray:none;stroke-opacity:1"
     transform="matrix(0 -0.0252 -0.0252 0 1632.67 793.333)" /><path
     id="path183"
     d="m 17869,2637 v 389"
     style="fill:none;stroke:#000000;stroke-width:75;stroke-linecap:round;stroke-linejoin:round;stroke-miterlimit:10;stroke-dasharray:none;stroke-opacity:1"
     transform="matrix(0 -0.0252 -0.0252 0 1632.67 793.333)" /><path
     id="path184"
     d="m 17869,3104 v 78"
     style="fill:none;stroke:#000000;stroke-width:75;stroke-linecap:round;stroke-linejoin:round;stroke-miterlimit:10;stroke-dasharray:none;stroke-opacity:1"
     transform="matrix(0 -0.0252 -0.0252 0 1632.67 793.333)" /><path
     id="path185"
     d="m 17869,3260 v 311"
     style="fill:none;stroke:#000000;stroke-width:75;stroke-linecap:round;stroke-linejoin:round;stroke-miterlimit:10;stroke-dasharray:none;stroke-opacity:1"
     transform="matrix(0 -0.0252 -0.0252 0 1632.67 793.333)" /><path
     id="path186"
     d="m 17869,3649 v 78"
     style="fill:none;stroke:#000000;stroke-width:75;stroke-linecap:round;stroke-linejoin:round;stroke-miterlimit:10;stroke-dasharray:none;stroke-opacity:1"
     transform="matrix(0 -0.0252 -0.0252 0 1632.67 793.333)" /><path
     id="path187"
     d="m 17869,3805 v 389"
     style="fill:none;stroke:#000000;stroke-width:75;stroke-linecap:round;stroke-linejoin:round;stroke-miterlimit:10;stroke-dasharray:none;stroke-opacity:1"
     transform="matrix(0 -0.0252 -0.0252 0 1632.67 793.333)" /><path
     id="path188"
     d="m 17869,4200 v -6"
     style="fill:none;stroke:#ff0000;stroke-width:75;stroke-linecap:round;stroke-linejoin:round;stroke-miterlimit:10;stroke-dasharray:none;stroke-opacity:1"
     transform="matrix(0 -0.0252 -0.0252 0 1632.67 793.333)" /><path
     id="path189"
     d="m 20140,5432 2,-24 5,-24 10,-23 13,-20 15,-19 19,-16 21,-13 22,-9 24,-6 25,-2 24,2 24,6 22,9 21,13 19,16 16,19 12,20 10,23 5,24 2,24 v 195 h -700 v -195 l 1,-28 6,-27 10,-26 13,-24 17,-22 20,-20 22,-17 24,-13 26,-10 27,-6 28,-2 28,2 27,6 26,10 24,13 23,17 19,20 17,22 13,24 10,26 6,27 2,28 v 195"
     style="fill:none;stroke:#ff00ff;stroke-width:75;stroke-linecap:round;stroke-linejoin:round;stroke-miterlimit:10;stroke-dasharray:none;stroke-opacity:1"
     transform="matrix(0 -0.0252 -0.0252 0 1632.67 793.333)" /><path
     id="path190"
     d="m 20134,2988 2,-24 5,-24 10,-23 13,-20 15,-19 19,-16 21,-13 22,-9 24,-6 24,-2 25,2 24,6 22,9 21,13 19,16 15,19 13,20 10,23 5,24 2,24 v 195 h -701 v -195 l 2,-28 6,-27 10,-26 13,-24 17,-22 20,-20 22,-17 24,-13 26,-10 27,-6 28,-2 28,2 27,6 26,10 24,13 23,17 19,20 17,22 13,24 10,26 6,27 2,28 v 195"
     style="fill:none;stroke:#ff00ff;stroke-width:75;stroke-linecap:round;stroke-linejoin:round;stroke-miterlimit:10;stroke-dasharray:none;stroke-opacity:1"
     transform="matrix(0 -0.0252 -0.0252 0 1632.67 793.333)" /></svg>
