<?xml version="1.0" encoding="UTF-8" standalone="no"?>
<svg
   width="24"
   height="24"
   viewBox="0 0 24 24"
   fill="none"
   version="1.1"
   id="svg3"
   sodipodi:docname="fire.svg"
   inkscape:version="1.3.2 (091e20e, 2023-11-25, custom)"
   xmlns:inkscape="http://www.inkscape.org/namespaces/inkscape"
   xmlns:sodipodi="http://sodipodi.sourceforge.net/DTD/sodipodi-0.dtd"
   xmlns="http://www.w3.org/2000/svg"
   xmlns:svg="http://www.w3.org/2000/svg">
  <defs
     id="defs3" />
  <sodipodi:namedview
     id="namedview3"
     pagecolor="#505050"
     bordercolor="#eeeeee"
     borderopacity="1"
     inkscape:showpageshadow="0"
     inkscape:pageopacity="0"
     inkscape:pagecheckerboard="0"
     inkscape:deskcolor="#505050"
     inkscape:zoom="34.916667"
     inkscape:cx="12"
     inkscape:cy="12"
     inkscape:window-width="1920"
     inkscape:window-height="1057"
     inkscape:window-x="1912"
     inkscape:window-y="-8"
     inkscape:window-maximized="1"
     inkscape:current-layer="svg3" />
  <path
     d="M 15.087849,22.224 H 9.9660185 c -2.7985259,0 -4.5938066,-1.178177 -4.8578185,-3.204642 0,-0.09426 0.1056047,-0.235635 0.2112095,-0.235635 0.1584071,0 0.2640119,0.09426 0.3168142,0.188508 0.2640119,1.79083 1.7952808,2.780498 4.3297948,2.780498 h 5.1218305 c 1.584071,0 2.851328,-0.471271 3.590561,-1.319558 0.844838,-0.942542 1.10885,-2.356354 0.739234,-3.770166 -0.528024,-1.979338 0.475221,-4.382819 2.323304,-5.702377 -0.580826,-0.235636 -1.320059,-0.235636 -2.059293,0 -1.161652,0.377016 -2.164897,1.178177 -2.692921,2.214972 -0.0528,0.188509 -0.158407,0.377017 -0.264012,0.565526 -0.0528,0.09426 -0.211209,0.188508 -0.316814,0.141381 -0.105605,-0.04712 -0.211209,-0.188509 -0.158407,-0.282763 0.0528,-0.188508 0.158407,-0.377017 0.264012,-0.565524 1.267257,-3.1103881 -0.105605,-4.6655818 -1.214455,-5.8908858 -0.158407,-0.1413813 -0.158407,-0.2827625 -0.0528,-0.3298897 0.105605,-0.094254 0.264012,-0.047127 0.369617,0.047127 1.003245,1.0839228 2.270502,2.4977353 1.742478,4.9483435 0.580826,-0.565525 1.320059,-0.989668 2.112095,-1.272431 1.056047,-0.32989 2.112095,-0.235636 2.851328,0.188508 0.0528,0.04712 0.105605,0.09426 0.105605,0.188509 0,0.09426 -0.0528,0.141381 -0.105605,0.188508 -1.848083,1.131049 -2.90413,3.487404 -2.428909,5.419614 0.422419,1.602321 0.105605,3.157515 -0.844838,4.194311 -0.844838,0.989669 -2.2177,1.508066 -3.960178,1.508066 z"
     fill="#C60D41"
     id="path1"
     style="fill:#f01f1f;fill-opacity:1;stroke-width:1.03926" />
  <path
     d="M 5.5123573,17.568 H 5.4607889 C 5.3060836,17.519912 5.2545152,17.423736 5.2545152,17.279473 5.7701994,15.067432 4.9966731,13.240093 3.2949153,12.614951 3.1917784,12.566863 3.14021,12.470688 3.14021,12.374512 c 0,-0.09618 0.1031368,-0.192351 0.2578421,-0.192351 0.1031368,0 0.2062737,0 0.3094105,0 0.7219579,-0.04809 2.0111684,-0.144264 3.197242,0.577054 -1.4439157,-4.1836432 2.1143052,-5.7224545 2.1658629,-5.7224545 0.1031476,-0.048088 0.2062737,-0.048088 0.2578421,0.048088 0.051568,0.096176 0.1031369,0.1442635 0.1031369,0.2404392 0,0 -0.2578314,2.0677776 1.2376425,2.7410073 0.464115,-0.2885269 0.360978,-0.5289661 0.05157,-1.202196 -0.257842,-0.5289664 -0.618821,-1.298372 -0.618821,-2.3082169 0,-2.260129 1.650189,-4.6164338 4.744295,-4.6645216 0.103136,0 0.206273,0.048088 0.257842,0.1442635 0.05157,0.096176 0.05157,0.1923514 0,0.2404393 -1.134506,1.3945477 -0.9798,2.260129 -0.412548,3.1737982 0.05157,0.096176 0.05157,0.2404393 -0.103137,0.336615 -0.103136,0.048088 -0.257842,0.048088 -0.360979,-0.096176 -0.721957,-1.1060206 -0.721957,-2.1158655 0.103137,-3.269974 -2.423715,0.2885272 -3.661357,2.2601291 -3.661357,4.1836431 0,0.9136692 0.30941,1.5868991 0.567252,2.1158655 0.309411,0.7213178 0.618821,1.3464599 -0.360979,1.8754269 -0.05157,0.04809 -0.154705,0.04809 -0.206273,0 C 9.1737151,10.018207 8.9674414,8.5274839 8.9674414,7.7580783 8.0907783,8.2870446 6.1311783,9.9701194 7.7813678,13.52862 c 0.051558,0.09618 0,0.24044 -0.1031476,0.288528 -0.1031261,0.04809 -0.2578421,0.04809 -0.3093998,-0.04809 -0.9798,-1.009845 -2.1143052,-1.106021 -2.9909683,-1.106021 1.3923473,0.961757 1.9595999,2.741008 1.4954841,4.808785 -0.1547052,0 -0.2578421,0.09618 -0.3609789,0.09618 z"
     fill="#C60D41"
     id="path2"
     style="fill:#f2da3a;fill-opacity:1;stroke-width:1.03745" />
  <path
     d="m 12.45486,21.138558 h -2.445089 c -1.1927267,0 -1.9679989,-0.24 -2.3854532,-0.768 -0.715636,-0.96 0.2385453,-2.4 0.536727,-2.832 l 0.059636,-0.048 c 0.2385453,-0.384 0.178909,-1.2 -0.536727,-1.824 -0.059636,-0.048 -0.1192727,-0.192 -0.059636,-0.288 0.059636,-0.096 0.178909,-0.144 0.2981816,-0.144 0.059636,0 0.1192727,0 0.2385454,0 0.4770905,0 1.0138175,0.048 1.6698175,0.432 0,-0.768 0.2385447,-1.392 0.7156357,-1.824 0.536727,-0.48 1.371635,-0.672 2.385453,-0.576 0.119273,0 0.178909,0.048 0.238545,0.144 0.05964,0.096 0.05964,0.144 0,0.24 -0.655999,0.768 -0.775272,2.016 -0.536727,2.736 0.05964,0.24 0.178909,0.432 0.298182,0.528 0.417454,-0.48 0.715636,-0.864 0.715636,-0.864 0.05964,-0.048 0.119273,-0.096 0.238545,-0.096 0.05964,0 0.178909,0 0.238546,0.048 0.05964,0.048 1.311999,1.008 1.311999,2.688 -0.119273,1.824 -1.669817,2.448 -2.981817,2.448 z m -3.9359973,-5.376 c 0.4770906,0.672 0.5367266,1.488 0.2385456,1.92 l -0.05964,0.048 c -0.7156355,1.104 -0.8945445,1.92 -0.5367265,2.4 0.2981816,0.384 0.8945445,0.528 1.8487262,0.528 h 2.445089 c 0.536727,0 2.266181,-0.144 2.266181,-1.968 0,-1.008 -0.536727,-1.776 -0.834909,-2.112 -0.178909,0.192 -0.417454,0.528 -0.655999,0.816 -0.05964,0.096 -0.238546,0.144 -0.357818,0.096 -0.357818,-0.144 -0.656,-0.48 -0.775273,-1.008 -0.238545,-0.768 -0.178909,-1.92 0.417455,-2.784 -0.596364,0 -1.073454,0.144 -1.431272,0.432 -0.536727,0.432 -0.715636,1.152 -0.477091,2.064 0,0.096 -0.05964,0.192 -0.178909,0.24 -0.119273,0.048 -0.238545,0 -0.357818,-0.048 -0.6559997,-0.48 -1.1330897,-0.624 -1.5505443,-0.624 z"
     fill="black"
     id="path3"
     style="fill:#ff7621;fill-opacity:1;stroke-width:1.11464" />
</svg>
