<?xml version="1.0" encoding="UTF-8" standalone="no"?>
<svg
   width="42"
   height="42"
   viewBox="0 0 42 42"
   fill="none"
   version="1.1"
   id="svg6"
   sodipodi:docname="rc.svg"
   inkscape:version="1.3.2 (091e20e, 2023-11-25, custom)"
   xmlns:inkscape="http://www.inkscape.org/namespaces/inkscape"
   xmlns:sodipodi="http://sodipodi.sourceforge.net/DTD/sodipodi-0.dtd"
   xmlns="http://www.w3.org/2000/svg"
   xmlns:svg="http://www.w3.org/2000/svg">
  <defs
     id="defs6" />
  <sodipodi:namedview
     id="namedview6"
     pagecolor="#505050"
     bordercolor="#eeeeee"
     borderopacity="1"
     inkscape:showpageshadow="0"
     inkscape:pageopacity="0"
     inkscape:pagecheckerboard="0"
     inkscape:deskcolor="#505050"
     inkscape:zoom="19.952381"
     inkscape:cx="21"
     inkscape:cy="21"
     inkscape:window-width="1920"
     inkscape:window-height="1057"
     inkscape:window-x="1912"
     inkscape:window-y="-8"
     inkscape:window-maximized="1"
     inkscape:current-layer="svg6" />
  <path
     d="m 41.36088,10.124563 c -0.237072,0 -0.39512,-0.267522 -0.39512,-0.6688055 0,-4.2803566 -1.896574,-7.7581464 -4.109163,-7.7581464 -2.212671,0 -4.109246,3.4777898 -4.109246,7.7581464 0,0.4012835 -0.158047,0.6688055 -0.395119,0.6688055 -0.237072,0 -0.39512,-0.267522 -0.39512,-0.6688055 0,-4.9491624 2.212671,-9.0957565 4.899485,-9.0957565 2.686732,0 4.899403,4.012833 4.899403,9.0957565 0,0.2675223 -0.158048,0.6688055 -0.39512,0.6688055 z"
     fill="#000000"
     id="path1"
     style="stroke-width:1.07096" />
  <path
     d="m 0.9031169,36.36 c -0.31394034,0 -0.5232339,-0.173806 -0.5232339,-0.434515 0,-0.260709 0.20929356,-0.434515 0.5232339,-0.434515 3.2440469,0 6.2788036,-1.042836 8.476386,-2.954702 l 0.1046468,-0.0869 20.8247313,-17.554406 c 1.151114,-0.955932 1.778995,-2.172574 1.778995,-3.476119 0,-0.260709 0.209294,-0.434515 0.523234,-0.434515 0.31394,0 0.523234,0.173806 0.523234,0.434515 0,1.564254 -0.732528,2.954702 -1.988289,4.08444 l -20.929378,17.641309 -0.104647,0.0869 C 7.7051544,35.230261 4.3564574,36.36 0.9031169,36.36 Z"
     fill="#D91D52"
     id="path2"
     style="fill:#000000;fill-opacity:1;stroke-width:0.993366" />
  <path
     d="M3.83595 32.328C3.64395 32.328 3.54795 32.232 3.45195 32.136C2.10795 29.928 1.05195 27.528 0.379953 25.032C0.283953 24.744 0.475953 24.552 0.763953 24.456C1.05195 24.36 1.24395 24.552 1.33995 24.84C2.01195 27.24 2.97195 29.544 4.31595 31.752C4.41195 31.944 4.41195 32.232 4.12395 32.424C4.02795 32.328 3.93195 32.328 3.83595 32.328Z"
     fill="#D91D52"
     id="path3"
     style="fill:#b31dd9;fill-opacity:1" />
  <path
     d="M7.19598 29.352C7.00398 29.352 6.81198 29.256 6.71598 28.968C6.33198 27.624 5.94798 26.28 5.65998 24.936C5.56398 24.648 5.75598 24.456 6.04398 24.36C6.33198 24.36 6.52398 24.456 6.61998 24.744C6.90798 26.088 7.19598 27.432 7.57998 28.68C7.67598 28.968 7.48398 29.16 7.29198 29.256C7.29198 29.352 7.29198 29.352 7.19598 29.352Z"
     fill="#D91D52"
     id="path4"
     style="fill:#000000;fill-opacity:1" />
  <path
     d="M15.932 41.352C15.836 41.352 15.836 41.352 15.74 41.352C13.244 40.392 10.844 38.952 8.63596 37.32C8.44396 37.128 8.34796 36.84 8.53996 36.648C8.63596 36.36 8.92396 36.36 9.21196 36.552C11.324 38.184 13.628 39.528 16.124 40.488C16.412 40.584 16.508 40.872 16.412 41.064C16.22 41.256 16.124 41.352 15.932 41.352Z"
     fill="#D91D52"
     id="path5"
     style="fill:#3ad91d;fill-opacity:1" />
  <path
     d="M14.5879 36.744C14.4919 36.744 14.3959 36.744 14.3959 36.648C13.3399 36.072 12.2839 35.4 11.3239 34.632C11.1319 34.44 11.0359 34.152 11.2279 33.96C11.4199 33.768 11.7079 33.672 11.8999 33.864C12.8599 34.632 13.8199 35.304 14.8759 35.784C15.0679 35.88 15.1639 36.168 15.0679 36.456C14.8759 36.648 14.6839 36.744 14.5879 36.744Z"
     fill="#D91D52"
     id="path6"
     style="fill:#f6f000;fill-opacity:1" />
</svg>
