<?xml version="1.0" encoding="UTF-8" standalone="no"?>
<svg
   id="flag-icons-sh"
   viewBox="0 0 640 480"
   version="1.1"
   sodipodi:docname="sh.svg"
   inkscape:version="1.3.2 (091e20ef0f, 2023-11-25, custom)"
   xmlns:inkscape="http://www.inkscape.org/namespaces/inkscape"
   xmlns:sodipodi="http://sodipodi.sourceforge.net/DTD/sodipodi-0.dtd"
   xmlns="http://www.w3.org/2000/svg"
   xmlns:svg="http://www.w3.org/2000/svg">
  <defs
     id="defs5" />
  <sodipodi:namedview
     id="namedview5"
     pagecolor="#ffffff"
     bordercolor="#000000"
     borderopacity="0.25"
     inkscape:showpageshadow="2"
     inkscape:pageopacity="0.0"
     inkscape:pagecheckerboard="0"
     inkscape:deskcolor="#d1d1d1"
     inkscape:zoom="1.88125"
     inkscape:cx="319.73422"
     inkscape:cy="240"
     inkscape:window-width="1920"
     inkscape:window-height="1128"
     inkscape:window-x="0"
     inkscape:window-y="0"
     inkscape:window-maximized="1"
     inkscape:current-layer="flag-icons-sh" />
  <path
     fill="#012169"
     d="M0 0h640v480H0z"
     id="path1" />
  <path
     fill="#FFF"
     d="m75 0 244 181L562 0h78v62L400 241l240 178v61h-80L320 301 81 480H0v-60l239-178L0 64V0h75z"
     id="path2" />
  <path
     fill="#C8102E"
     d="m424 281 216 159v40L369 281h55zm-184 20 6 35L54 480H0l240-179zM640 0v3L391 191l2-44L590 0h50zM0 0l239 176h-60L0 42V0z"
     id="path3" />
  <path
     fill="#FFF"
     d="M241 0v480h160V0H241zM0 160v160h640V160H0z"
     id="path4" />
  <path
     fill="#C8102E"
     d="M0 193v96h640v-96H0zM273 0v480h96V0h-96z"
     id="path5" />
  <path
     style="fill:#808080;stroke-width:0.531561"
     d="M 79.090626,100.85894 0.04171492,41.727575 0.02085746,21.064481 C 0.00424888,4.6106596 0.13535527,0.50653969 0.66445183,0.91757337 1.0299003,1.2014755 49.528239,36.900761 108.43854,80.249318 c 58.9103,43.348552 107.33688,79.025962 107.61462,79.283122 0.29106,0.26949 -11.86883,0.46551 -28.70432,0.46271 l -29.20931,-0.005 z"
     id="path6" />
  <path
     style="fill:#808080;stroke-width:0.531561"
     d="M 401.4498,150.49655 401.59468,140.9931 496.06802,70.496548 590.54136,0 H 615.27068 640 V 1.3034592 C 640,2.4150536 624.65673,14.190778 535.76336,81.303458 L 431.52673,160 h -15.1109 -15.11091 z"
     id="path7" />
  <path
     style="fill:#808080;stroke-width:0.531561"
     d="M 401.3289,59.566256 V 0 h 80.10214 80.10214 l -8.47424,6.2784388 C 548.39812,9.7315801 512.6305,36.364369 473.57535,65.462416 434.5202,94.560462 402.28764,118.53998 401.94744,118.75023 401.4785,119.04005 401.3289,104.72586 401.3289,59.566256 Z"
     id="path8" />
  <path
     style="fill:#808080;stroke-width:0.531561"
     d="m 509.76744,159.77296 c 0,-0.21894 128.21828,-95.934487 129.56811,-96.723205 C 639.8651,62.740334 640,72.54267 640,111.33076 V 160 h -65.11628 c -35.81395,0 -65.11628,-0.10217 -65.11628,-0.22704 z"
     id="path9" />
  <path
     style="fill:#808080;stroke-width:0.531561"
     d="m 573.5774,369.33229 -66.15683,-49.06651 66.11044,-0.13497 c 36.36075,-0.0742 66.19237,-0.053 66.2925,0.0471 0.10013,0.10012 0.121,22.24079 0.0464,49.20148 l -0.13567,49.01942 z"
     id="path10" />
  <path
     style="fill:#808080;stroke-width:0.531561"
     d="M 401.3289,421.0215 V 362.043 l 76.67774,57.19559 c 42.17276,31.45758 77.72875,57.9979 79.01332,58.9785 L 559.35553,480 H 480.34222 401.3289 Z"
     id="path11" />
  <path
     style="fill:#808080;stroke-width:0.531561"
     d="m 82.152824,479.54515 c 0.682209,-0.61448 157.221896,-117.79843 158.016846,-118.28974 0.48109,-0.29733 0.62767,13.52246 0.62767,59.17833 V 480 h -79.57475 c -44.14181,0 -79.349891,-0.20254 -79.069766,-0.45485 z"
     id="path12" />
  <path
     style="fill:#808080;stroke-width:0.531561"
     d="M 0,369.72741 V 320 h 66.817276 c 37.159574,0 66.593134,0.20224 66.312294,0.45563 C 132.38141,321.13067 1.5333784,418.53248 0.70669741,419.02974 0.12081536,419.38215 0,410.95354 0,369.72741 Z"
     id="path13" />
  <path
     style="fill:#808080;stroke-width:0.531561"
     d="M 0,112.42525 C 0,86.259136 0.14228231,64.850498 0.31618291,64.850498 c 0.26004162,0 93.28657009,69.134752 120.29920709,89.403062 L 128.27398,160 H 64.136989 0 Z"
     id="path14" />
  <path
     style="fill:#808080;stroke-width:0.531561"
     d="M 158.21906,61.328122 75.906547,0.26578073 158.17308,0.1312084 c 45.24659,-0.07401483 82.34803,-0.05306786 82.44765,0.0465487 0.0996,0.0996166 0.1203,27.6382269 0.046,61.1969089 l -0.13515,61.015794 z"
     id="path15" />
</svg>
