<?xml version="1.0" encoding="UTF-8" standalone="no"?>
<svg
   width="250"
   height="250"
   version="1.1"
   id="svg320"
   sodipodi:docname="ssttrrdd.svg"
   viewBox="0 0 25 25"
   inkscape:version="1.4 (e7c3feb100, 2024-10-09)"
   xmlns:inkscape="http://www.inkscape.org/namespaces/inkscape"
   xmlns:sodipodi="http://sodipodi.sourceforge.net/DTD/sodipodi-0.dtd"
   xmlns="http://www.w3.org/2000/svg"
   xmlns:svg="http://www.w3.org/2000/svg">
  <defs
     id="defs320" />
  <sodipodi:namedview
     id="namedview320"
     pagecolor="#505050"
     bordercolor="#eeeeee"
     borderopacity="1"
     inkscape:showpageshadow="0"
     inkscape:pageopacity="0"
     inkscape:pagecheckerboard="0"
     inkscape:deskcolor="#505050"
     showborder="false"
     borderlayer="false"
     inkscape:antialias-rendering="false"
     inkscape:zoom="2.8284271"
     inkscape:cx="138.76971"
     inkscape:cy="108.54089"
     inkscape:window-width="2560"
     inkscape:window-height="1364"
     inkscape:window-x="0"
     inkscape:window-y="0"
     inkscape:window-maximized="1"
     inkscape:current-layer="svg320" />
  <rect
     x="0"
     y="0"
     width="1"
     height="1"
     id="rect1" />
  <rect
     x="1"
     y="0"
     width="1"
     height="1"
     id="rect2" />
  <rect
     x="2"
     y="0"
     width="1"
     height="1"
     id="rect3" />
  <rect
     x="3"
     y="0"
     width="1"
     height="1"
     id="rect4" />
  <rect
     x="4"
     y="0"
     width="1"
     height="1"
     id="rect5" />
  <rect
     x="5"
     y="0"
     width="1"
     height="1"
     id="rect6" />
  <rect
     x="6"
     y="0"
     width="1"
     height="1"
     id="rect7" />
  <rect
     x="8"
     y="0"
     width="1"
     height="1"
     id="rect8" />
  <rect
     x="11"
     y="0"
     width="1"
     height="1"
     id="rect9" />
  <rect
     x="12"
     y="0"
     width="1"
     height="1"
     id="rect10" />
  <rect
     x="13"
     y="0"
     width="1"
     height="1"
     id="rect11" />
  <rect
     x="14"
     y="0"
     width="1"
     height="1"
     id="rect12" />
  <rect
     x="18"
     y="0"
     width="1"
     height="1"
     id="rect13" />
  <rect
     x="19"
     y="0"
     width="1"
     height="1"
     id="rect14" />
  <rect
     x="20"
     y="0"
     width="1"
     height="1"
     id="rect15" />
  <rect
     x="21"
     y="0"
     width="1"
     height="1"
     id="rect16" />
  <rect
     x="22"
     y="0"
     width="1"
     height="1"
     id="rect17" />
  <rect
     x="23"
     y="0"
     width="1"
     height="1"
     id="rect18" />
  <rect
     x="24"
     y="0"
     width="1"
     height="1"
     id="rect19" />
  <rect
     x="0"
     y="1"
     width="1"
     height="1"
     id="rect20" />
  <rect
     x="6"
     y="1"
     width="1"
     height="1"
     id="rect21" />
  <rect
     x="9"
     y="1"
     width="1"
     height="1"
     id="rect22" />
  <rect
     x="10"
     y="1"
     width="1"
     height="1"
     id="rect23" />
  <rect
     x="18"
     y="1"
     width="1"
     height="1"
     id="rect24" />
  <rect
     x="24"
     y="1"
     width="1"
     height="1"
     id="rect25" />
  <rect
     x="0"
     y="2"
     width="1"
     height="1"
     id="rect26" />
  <rect
     x="2"
     y="2"
     width="1"
     height="1"
     id="rect27" />
  <rect
     x="3"
     y="2"
     width="1"
     height="1"
     id="rect28" />
  <rect
     x="4"
     y="2"
     width="1"
     height="1"
     id="rect29" />
  <rect
     x="6"
     y="2"
     width="1"
     height="1"
     id="rect30" />
  <rect
     x="10"
     y="2"
     width="1"
     height="1"
     id="rect31" />
  <rect
     x="12"
     y="2"
     width="1"
     height="1"
     id="rect32" />
  <rect
     x="13"
     y="2"
     width="1"
     height="1"
     id="rect33" />
  <rect
     x="14"
     y="2"
     width="1"
     height="1"
     id="rect34" />
  <rect
     x="18"
     y="2"
     width="1"
     height="1"
     id="rect35" />
  <rect
     x="20"
     y="2"
     width="1"
     height="1"
     id="rect36" />
  <rect
     x="21"
     y="2"
     width="1"
     height="1"
     id="rect37" />
  <rect
     x="22"
     y="2"
     width="1"
     height="1"
     id="rect38" />
  <rect
     x="24"
     y="2"
     width="1"
     height="1"
     id="rect39" />
  <rect
     x="0"
     y="3"
     width="1"
     height="1"
     id="rect40" />
  <rect
     x="2"
     y="3"
     width="1"
     height="1"
     id="rect41" />
  <rect
     x="3"
     y="3"
     width="1"
     height="1"
     id="rect42" />
  <rect
     x="4"
     y="3"
     width="1"
     height="1"
     id="rect43" />
  <rect
     x="6"
     y="3"
     width="1"
     height="1"
     id="rect44" />
  <rect
     x="12"
     y="3"
     width="1"
     height="1"
     id="rect45" />
  <rect
     x="13"
     y="3"
     width="1"
     height="1"
     id="rect46" />
  <rect
     x="15"
     y="3"
     width="1"
     height="1"
     id="rect47" />
  <rect
     x="16"
     y="3"
     width="1"
     height="1"
     id="rect48" />
  <rect
     x="18"
     y="3"
     width="1"
     height="1"
     id="rect49" />
  <rect
     x="20"
     y="3"
     width="1"
     height="1"
     id="rect50" />
  <rect
     x="21"
     y="3"
     width="1"
     height="1"
     id="rect51" />
  <rect
     x="22"
     y="3"
     width="1"
     height="1"
     id="rect52" />
  <rect
     x="24"
     y="3"
     width="1"
     height="1"
     id="rect53" />
  <rect
     x="0"
     y="4"
     width="1"
     height="1"
     id="rect54" />
  <rect
     x="2"
     y="4"
     width="1"
     height="1"
     id="rect55" />
  <rect
     x="3"
     y="4"
     width="1"
     height="1"
     id="rect56" />
  <rect
     x="4"
     y="4"
     width="1"
     height="1"
     id="rect57" />
  <rect
     x="6"
     y="4"
     width="1"
     height="1"
     id="rect58" />
  <rect
     x="9"
     y="4"
     width="1"
     height="1"
     id="rect59" />
  <rect
     x="11"
     y="4"
     width="1"
     height="1"
     id="rect60" />
  <rect
     x="13"
     y="4"
     width="1"
     height="1"
     id="rect61" />
  <rect
     x="14"
     y="4"
     width="1"
     height="1"
     id="rect62" />
  <rect
     x="18"
     y="4"
     width="1"
     height="1"
     id="rect63" />
  <rect
     x="20"
     y="4"
     width="1"
     height="1"
     id="rect64" />
  <rect
     x="21"
     y="4"
     width="1"
     height="1"
     id="rect65" />
  <rect
     x="22"
     y="4"
     width="1"
     height="1"
     id="rect66" />
  <rect
     x="24"
     y="4"
     width="1"
     height="1"
     id="rect67" />
  <rect
     x="0"
     y="5"
     width="1"
     height="1"
     id="rect68" />
  <rect
     x="6"
     y="5"
     width="1"
     height="1"
     id="rect69" />
  <rect
     x="10"
     y="5"
     width="1"
     height="1"
     id="rect70" />
  <rect
     x="12"
     y="5"
     width="1"
     height="1"
     id="rect71" />
  <rect
     x="16"
     y="5"
     width="1"
     height="1"
     id="rect72" />
  <rect
     x="18"
     y="5"
     width="1"
     height="1"
     id="rect73" />
  <rect
     x="24"
     y="5"
     width="1"
     height="1"
     id="rect74" />
  <rect
     x="0"
     y="6"
     width="1"
     height="1"
     id="rect75" />
  <rect
     x="1"
     y="6"
     width="1"
     height="1"
     id="rect76" />
  <rect
     x="2"
     y="6"
     width="1"
     height="1"
     id="rect77" />
  <rect
     x="3"
     y="6"
     width="1"
     height="1"
     id="rect78" />
  <rect
     x="4"
     y="6"
     width="1"
     height="1"
     id="rect79" />
  <rect
     x="5"
     y="6"
     width="1"
     height="1"
     id="rect80" />
  <rect
     x="6"
     y="6"
     width="1"
     height="1"
     id="rect81" />
  <rect
     x="8"
     y="6"
     width="1"
     height="1"
     id="rect82" />
  <rect
     x="10"
     y="6"
     width="1"
     height="1"
     id="rect83" />
  <rect
     x="12"
     y="6"
     width="1"
     height="1"
     id="rect84" />
  <rect
     x="14"
     y="6"
     width="1"
     height="1"
     id="rect85" />
  <rect
     x="16"
     y="6"
     width="1"
     height="1"
     id="rect86" />
  <rect
     x="18"
     y="6"
     width="1"
     height="1"
     id="rect87" />
  <rect
     x="19"
     y="6"
     width="1"
     height="1"
     id="rect88" />
  <rect
     x="20"
     y="6"
     width="1"
     height="1"
     id="rect89" />
  <rect
     x="21"
     y="6"
     width="1"
     height="1"
     id="rect90" />
  <rect
     x="22"
     y="6"
     width="1"
     height="1"
     id="rect91" />
  <rect
     x="23"
     y="6"
     width="1"
     height="1"
     id="rect92" />
  <rect
     x="24"
     y="6"
     width="1"
     height="1"
     id="rect93" />
  <rect
     x="8"
     y="7"
     width="1"
     height="1"
     id="rect94" />
  <rect
     x="10"
     y="7"
     width="1"
     height="1"
     id="rect95" />
  <rect
     x="11"
     y="7"
     width="1"
     height="1"
     id="rect96" />
  <rect
     x="13"
     y="7"
     width="1"
     height="1"
     id="rect97" />
  <rect
     x="16"
     y="7"
     width="1"
     height="1"
     id="rect98" />
  <rect
     x="0"
     y="8"
     width="1"
     height="1"
     id="rect99" />
  <rect
     x="1"
     y="8"
     width="1"
     height="1"
     id="rect100" />
  <rect
     x="3"
     y="8"
     width="1"
     height="1"
     id="rect101" />
  <rect
     x="4"
     y="8"
     width="1"
     height="1"
     id="rect102" />
  <rect
     x="6"
     y="8"
     width="1"
     height="1"
     id="rect103" />
  <rect
     x="9"
     y="8"
     width="1"
     height="1"
     id="rect104" />
  <rect
     x="10"
     y="8"
     width="1"
     height="1"
     id="rect105" />
  <rect
     x="11"
     y="8"
     width="1"
     height="1"
     id="rect106" />
  <rect
     x="12"
     y="8"
     width="1"
     height="1"
     id="rect107" />
  <rect
     x="14"
     y="8"
     width="1"
     height="1"
     id="rect108" />
  <rect
     x="15"
     y="8"
     width="1"
     height="1"
     id="rect109" />
  <rect
     x="16"
     y="8"
     width="1"
     height="1"
     id="rect110" />
  <rect
     x="18"
     y="8"
     width="1"
     height="1"
     id="rect111" />
  <rect
     x="24"
     y="8"
     width="1"
     height="1"
     id="rect112" />
  <rect
     x="0"
     y="9"
     width="1"
     height="1"
     id="rect113" />
  <rect
     x="2"
     y="9"
     width="1"
     height="1"
     id="rect114" />
  <rect
     x="4"
     y="9"
     width="1"
     height="1"
     id="rect115" />
  <rect
     x="7"
     y="9"
     width="1"
     height="1"
     id="rect116" />
  <rect
     x="8"
     y="9"
     width="1"
     height="1"
     id="rect117" />
  <rect
     x="9"
     y="9"
     width="1"
     height="1"
     id="rect118" />
  <rect
     x="12"
     y="9"
     width="1"
     height="1"
     id="rect119" />
  <rect
     x="15"
     y="9"
     width="1"
     height="1"
     id="rect120" />
  <rect
     x="17"
     y="9"
     width="1"
     height="1"
     id="rect121" />
  <rect
     x="19"
     y="9"
     width="1"
     height="1"
     id="rect122" />
  <rect
     x="20"
     y="9"
     width="1"
     height="1"
     id="rect123" />
  <rect
     x="21"
     y="9"
     width="1"
     height="1"
     id="rect124" />
  <rect
     x="22"
     y="9"
     width="1"
     height="1"
     id="rect125" />
  <rect
     x="23"
     y="9"
     width="1"
     height="1"
     id="rect126" />
  <rect
     x="2"
     y="10"
     width="1"
     height="1"
     id="rect127" />
  <rect
     x="3"
     y="10"
     width="1"
     height="1"
     id="rect128" />
  <rect
     x="4"
     y="10"
     width="1"
     height="1"
     id="rect129" />
  <rect
     x="5"
     y="10"
     width="1"
     height="1"
     id="rect130" />
  <rect
     x="6"
     y="10"
     width="1"
     height="1"
     id="rect131" />
  <rect
     x="8"
     y="10"
     width="1"
     height="1"
     id="rect132" />
  <rect
     x="10"
     y="10"
     width="1"
     height="1"
     id="rect133" />
  <rect
     x="11"
     y="10"
     width="1"
     height="1"
     id="rect134" />
  <rect
     x="15"
     y="10"
     width="1"
     height="1"
     id="rect135" />
  <rect
     x="17"
     y="10"
     width="1"
     height="1"
     id="rect136" />
  <rect
     x="18"
     y="10"
     width="1"
     height="1"
     id="rect137" />
  <rect
     x="19"
     y="10"
     width="1"
     height="1"
     id="rect138" />
  <rect
     x="21"
     y="10"
     width="1"
     height="1"
     id="rect139" />
  <rect
     x="24"
     y="10"
     width="1"
     height="1"
     id="rect140" />
  <rect
     x="2"
     y="11"
     width="1"
     height="1"
     id="rect141" />
  <rect
     x="3"
     y="11"
     width="1"
     height="1"
     id="rect142" />
  <rect
     x="5"
     y="11"
     width="1"
     height="1"
     id="rect143" />
  <rect
     x="9"
     y="11"
     width="1"
     height="1"
     id="rect144" />
  <rect
     x="10"
     y="11"
     width="1"
     height="1"
     id="rect145" />
  <rect
     x="21"
     y="11"
     width="1"
     height="1"
     id="rect146" />
  <rect
     x="22"
     y="11"
     width="1"
     height="1"
     id="rect147" />
  <rect
     x="23"
     y="11"
     width="1"
     height="1"
     id="rect148" />
  <rect
     x="24"
     y="11"
     width="1"
     height="1"
     id="rect149" />
  <rect
     x="1"
     y="12"
     width="1"
     height="1"
     id="rect150" />
  <rect
     x="4"
     y="12"
     width="1"
     height="1"
     id="rect151" />
  <rect
     x="5"
     y="12"
     width="1"
     height="1"
     id="rect152" />
  <rect
     x="6"
     y="12"
     width="1"
     height="1"
     id="rect153" />
  <rect
     x="8"
     y="12"
     width="1"
     height="1"
     id="rect154" />
  <rect
     x="9"
     y="12"
     width="1"
     height="1"
     id="rect155" />
  <rect
     x="12"
     y="12"
     width="1"
     height="1"
     id="rect156" />
  <rect
     x="15"
     y="12"
     width="1"
     height="1"
     id="rect157" />
  <rect
     x="16"
     y="12"
     width="1"
     height="1"
     id="rect158" />
  <rect
     x="18"
     y="12"
     width="1"
     height="1"
     id="rect159" />
  <rect
     x="24"
     y="12"
     width="1"
     height="1"
     id="rect160" />
  <rect
     x="0"
     y="13"
     width="1"
     height="1"
     id="rect161" />
  <rect
     x="2"
     y="13"
     width="1"
     height="1"
     id="rect162" />
  <rect
     x="3"
     y="13"
     width="1"
     height="1"
     id="rect163" />
  <rect
     x="7"
     y="13"
     width="1"
     height="1"
     id="rect164" />
  <rect
     x="9"
     y="13"
     width="1"
     height="1"
     id="rect165" />
  <rect
     x="11"
     y="13"
     width="1"
     height="1"
     id="rect166" />
  <rect
     x="12"
     y="13"
     width="1"
     height="1"
     id="rect167" />
  <rect
     x="14"
     y="13"
     width="1"
     height="1"
     id="rect168" />
  <rect
     x="15"
     y="13"
     width="1"
     height="1"
     id="rect169" />
  <rect
     x="16"
     y="13"
     width="1"
     height="1"
     id="rect170" />
  <rect
     x="17"
     y="13"
     width="1"
     height="1"
     id="rect171" />
  <rect
     x="20"
     y="13"
     width="1"
     height="1"
     id="rect172" />
  <rect
     x="23"
     y="13"
     width="1"
     height="1"
     id="rect173" />
  <rect
     x="0"
     y="14"
     width="1"
     height="1"
     id="rect174" />
  <rect
     x="1"
     y="14"
     width="1"
     height="1"
     id="rect175" />
  <rect
     x="4"
     y="14"
     width="1"
     height="1"
     id="rect176" />
  <rect
     x="6"
     y="14"
     width="1"
     height="1"
     id="rect177" />
  <rect
     x="8"
     y="14"
     width="1"
     height="1"
     id="rect178" />
  <rect
     x="10"
     y="14"
     width="1"
     height="1"
     id="rect179" />
  <rect
     x="13"
     y="14"
     width="1"
     height="1"
     id="rect180" />
  <rect
     x="15"
     y="14"
     width="1"
     height="1"
     id="rect181" />
  <rect
     x="16"
     y="14"
     width="1"
     height="1"
     id="rect182" />
  <rect
     x="17"
     y="14"
     width="1"
     height="1"
     id="rect183" />
  <rect
     x="18"
     y="14"
     width="1"
     height="1"
     id="rect184" />
  <rect
     x="20"
     y="14"
     width="1"
     height="1"
     id="rect185" />
  <rect
     x="21"
     y="14"
     width="1"
     height="1"
     id="rect186" />
  <rect
     x="22"
     y="14"
     width="1"
     height="1"
     id="rect187" />
  <rect
     x="23"
     y="14"
     width="1"
     height="1"
     id="rect188" />
  <rect
     x="24"
     y="14"
     width="1"
     height="1"
     id="rect189" />
  <rect
     x="0"
     y="15"
     width="1"
     height="1"
     id="rect190" />
  <rect
     x="4"
     y="15"
     width="1"
     height="1"
     id="rect191" />
  <rect
     x="5"
     y="15"
     width="1"
     height="1"
     id="rect192" />
  <rect
     x="9"
     y="15"
     width="1"
     height="1"
     id="rect193" />
  <rect
     x="10"
     y="15"
     width="1"
     height="1"
     id="rect194" />
  <rect
     x="11"
     y="15"
     width="1"
     height="1"
     id="rect195" />
  <rect
     x="14"
     y="15"
     width="1"
     height="1"
     id="rect196" />
  <rect
     x="15"
     y="15"
     width="1"
     height="1"
     id="rect197" />
  <rect
     x="16"
     y="15"
     width="1"
     height="1"
     id="rect198" />
  <rect
     x="18"
     y="15"
     width="1"
     height="1"
     id="rect199" />
  <rect
     x="19"
     y="15"
     width="1"
     height="1"
     id="rect200" />
  <rect
     x="21"
     y="15"
     width="1"
     height="1"
     id="rect201" />
  <rect
     x="22"
     y="15"
     width="1"
     height="1"
     id="rect202" />
  <rect
     x="24"
     y="15"
     width="1"
     height="1"
     id="rect203" />
  <rect
     x="0"
     y="16"
     width="1"
     height="1"
     id="rect204" />
  <rect
     x="4"
     y="16"
     width="1"
     height="1"
     id="rect205" />
  <rect
     x="5"
     y="16"
     width="1"
     height="1"
     id="rect206" />
  <rect
     x="6"
     y="16"
     width="1"
     height="1"
     id="rect207" />
  <rect
     x="9"
     y="16"
     width="1"
     height="1"
     id="rect208" />
  <rect
     x="12"
     y="16"
     width="1"
     height="1"
     id="rect209" />
  <rect
     x="13"
     y="16"
     width="1"
     height="1"
     id="rect210" />
  <rect
     x="15"
     y="16"
     width="1"
     height="1"
     id="rect211" />
  <rect
     x="16"
     y="16"
     width="1"
     height="1"
     id="rect212" />
  <rect
     x="17"
     y="16"
     width="1"
     height="1"
     id="rect213" />
  <rect
     x="18"
     y="16"
     width="1"
     height="1"
     id="rect214" />
  <rect
     x="19"
     y="16"
     width="1"
     height="1"
     id="rect215" />
  <rect
     x="20"
     y="16"
     width="1"
     height="1"
     id="rect216" />
  <rect
     x="22"
     y="16"
     width="1"
     height="1"
     id="rect217" />
  <rect
     x="23"
     y="16"
     width="1"
     height="1"
     id="rect218" />
  <rect
     x="8"
     y="17"
     width="1"
     height="1"
     id="rect219" />
  <rect
     x="9"
     y="17"
     width="1"
     height="1"
     id="rect220" />
  <rect
     x="14"
     y="17"
     width="1"
     height="1"
     id="rect221" />
  <rect
     x="15"
     y="17"
     width="1"
     height="1"
     id="rect222" />
  <rect
     x="16"
     y="17"
     width="1"
     height="1"
     id="rect223" />
  <rect
     x="20"
     y="17"
     width="1"
     height="1"
     id="rect224" />
  <rect
     x="22"
     y="17"
     width="1"
     height="1"
     id="rect225" />
  <rect
     x="23"
     y="17"
     width="1"
     height="1"
     id="rect226" />
  <rect
     x="0"
     y="18"
     width="1"
     height="1"
     id="rect227" />
  <rect
     x="1"
     y="18"
     width="1"
     height="1"
     id="rect228" />
  <rect
     x="2"
     y="18"
     width="1"
     height="1"
     id="rect229" />
  <rect
     x="3"
     y="18"
     width="1"
     height="1"
     id="rect230" />
  <rect
     x="4"
     y="18"
     width="1"
     height="1"
     id="rect231" />
  <rect
     x="5"
     y="18"
     width="1"
     height="1"
     id="rect232" />
  <rect
     x="6"
     y="18"
     width="1"
     height="1"
     id="rect233" />
  <rect
     x="9"
     y="18"
     width="1"
     height="1"
     id="rect234" />
  <rect
     x="10"
     y="18"
     width="1"
     height="1"
     id="rect235" />
  <rect
     x="11"
     y="18"
     width="1"
     height="1"
     id="rect236" />
  <rect
     x="13"
     y="18"
     width="1"
     height="1"
     id="rect237" />
  <rect
     x="16"
     y="18"
     width="1"
     height="1"
     id="rect238" />
  <rect
     x="18"
     y="18"
     width="1"
     height="1"
     id="rect239" />
  <rect
     x="20"
     y="18"
     width="1"
     height="1"
     id="rect240" />
  <rect
     x="24"
     y="18"
     width="1"
     height="1"
     id="rect241" />
  <rect
     x="0"
     y="19"
     width="1"
     height="1"
     id="rect242" />
  <rect
     x="6"
     y="19"
     width="1"
     height="1"
     id="rect243" />
  <rect
     x="12"
     y="19"
     width="1"
     height="1"
     id="rect244" />
  <rect
     x="13"
     y="19"
     width="1"
     height="1"
     id="rect245" />
  <rect
     x="15"
     y="19"
     width="1"
     height="1"
     id="rect246" />
  <rect
     x="16"
     y="19"
     width="1"
     height="1"
     id="rect247" />
  <rect
     x="20"
     y="19"
     width="1"
     height="1"
     id="rect248" />
  <rect
     x="23"
     y="19"
     width="1"
     height="1"
     id="rect249" />
  <rect
     x="0"
     y="20"
     width="1"
     height="1"
     id="rect250" />
  <rect
     x="2"
     y="20"
     width="1"
     height="1"
     id="rect251" />
  <rect
     x="3"
     y="20"
     width="1"
     height="1"
     id="rect252" />
  <rect
     x="4"
     y="20"
     width="1"
     height="1"
     id="rect253" />
  <rect
     x="6"
     y="20"
     width="1"
     height="1"
     id="rect254" />
  <rect
     x="8"
     y="20"
     width="1"
     height="1"
     id="rect255" />
  <rect
     x="9"
     y="20"
     width="1"
     height="1"
     id="rect256" />
  <rect
     x="11"
     y="20"
     width="1"
     height="1"
     id="rect257" />
  <rect
     x="12"
     y="20"
     width="1"
     height="1"
     id="rect258" />
  <rect
     x="14"
     y="20"
     width="1"
     height="1"
     id="rect259" />
  <rect
     x="15"
     y="20"
     width="1"
     height="1"
     id="rect260" />
  <rect
     x="16"
     y="20"
     width="1"
     height="1"
     id="rect261" />
  <rect
     x="17"
     y="20"
     width="1"
     height="1"
     id="rect262" />
  <rect
     x="18"
     y="20"
     width="1"
     height="1"
     id="rect263" />
  <rect
     x="19"
     y="20"
     width="1"
     height="1"
     id="rect264" />
  <rect
     x="20"
     y="20"
     width="1"
     height="1"
     id="rect265" />
  <rect
     x="0"
     y="21"
     width="1"
     height="1"
     id="rect266" />
  <rect
     x="2"
     y="21"
     width="1"
     height="1"
     id="rect267" />
  <rect
     x="3"
     y="21"
     width="1"
     height="1"
     id="rect268" />
  <rect
     x="4"
     y="21"
     width="1"
     height="1"
     id="rect269" />
  <rect
     x="6"
     y="21"
     width="1"
     height="1"
     id="rect270" />
  <rect
     x="8"
     y="21"
     width="1"
     height="1"
     id="rect271" />
  <rect
     x="11"
     y="21"
     width="1"
     height="1"
     id="rect272" />
  <rect
     x="14"
     y="21"
     width="1"
     height="1"
     id="rect273" />
  <rect
     x="17"
     y="21"
     width="1"
     height="1"
     id="rect274" />
  <rect
     x="18"
     y="21"
     width="1"
     height="1"
     id="rect275" />
  <rect
     x="23"
     y="21"
     width="1"
     height="1"
     id="rect276" />
  <rect
     x="24"
     y="21"
     width="1"
     height="1"
     id="rect277" />
  <rect
     x="0"
     y="22"
     width="1"
     height="1"
     id="rect278" />
  <rect
     x="2"
     y="22"
     width="1"
     height="1"
     id="rect279" />
  <rect
     x="3"
     y="22"
     width="1"
     height="1"
     id="rect280" />
  <rect
     x="4"
     y="22"
     width="1"
     height="1"
     id="rect281" />
  <rect
     x="6"
     y="22"
     width="1"
     height="1"
     id="rect282" />
  <rect
     x="10"
     y="22"
     width="1"
     height="1"
     id="rect283" />
  <rect
     x="11"
     y="22"
     width="1"
     height="1"
     id="rect284" />
  <rect
     x="12"
     y="22"
     width="1"
     height="1"
     id="rect285" />
  <rect
     x="13"
     y="22"
     width="1"
     height="1"
     id="rect286" />
  <rect
     x="14"
     y="22"
     width="1"
     height="1"
     id="rect287" />
  <rect
     x="15"
     y="22"
     width="1"
     height="1"
     id="rect288" />
  <rect
     x="20"
     y="22"
     width="1"
     height="1"
     id="rect289" />
  <rect
     x="21"
     y="22"
     width="1"
     height="1"
     id="rect290" />
  <rect
     x="22"
     y="22"
     width="1"
     height="1"
     id="rect291" />
  <rect
     x="23"
     y="22"
     width="1"
     height="1"
     id="rect292" />
  <rect
     x="24"
     y="22"
     width="1"
     height="1"
     id="rect293" />
  <rect
     x="0"
     y="23"
     width="1"
     height="1"
     id="rect294" />
  <rect
     x="6"
     y="23"
     width="1"
     height="1"
     id="rect295" />
  <rect
     x="8"
     y="23"
     width="1"
     height="1"
     id="rect296" />
  <rect
     x="9"
     y="23"
     width="1"
     height="1"
     id="rect297" />
  <rect
     x="15"
     y="23"
     width="1"
     height="1"
     id="rect298" />
  <rect
     x="18"
     y="23"
     width="1"
     height="1"
     id="rect299" />
  <rect
     x="19"
     y="23"
     width="1"
     height="1"
     id="rect300" />
  <rect
     x="20"
     y="23"
     width="1"
     height="1"
     id="rect301" />
  <rect
     x="22"
     y="23"
     width="1"
     height="1"
     id="rect302" />
  <rect
     x="23"
     y="23"
     width="1"
     height="1"
     id="rect303" />
  <rect
     x="24"
     y="23"
     width="1"
     height="1"
     id="rect304" />
  <rect
     x="0"
     y="24"
     width="1"
     height="1"
     id="rect305" />
  <rect
     x="1"
     y="24"
     width="1"
     height="1"
     id="rect306" />
  <rect
     x="2"
     y="24"
     width="1"
     height="1"
     id="rect307" />
  <rect
     x="3"
     y="24"
     width="1"
     height="1"
     id="rect308" />
  <rect
     x="4"
     y="24"
     width="1"
     height="1"
     id="rect309" />
  <rect
     x="5"
     y="24"
     width="1"
     height="1"
     id="rect310" />
  <rect
     x="6"
     y="24"
     width="1"
     height="1"
     id="rect311" />
  <rect
     x="8"
     y="24"
     width="1"
     height="1"
     id="rect312" />
  <rect
     x="9"
     y="24"
     width="1"
     height="1"
     id="rect313" />
  <rect
     x="12"
     y="24"
     width="1"
     height="1"
     id="rect314" />
  <rect
     x="14"
     y="24"
     width="1"
     height="1"
     id="rect315" />
  <rect
     x="16"
     y="24"
     width="1"
     height="1"
     id="rect316" />
  <rect
     x="17"
     y="24"
     width="1"
     height="1"
     id="rect317" />
  <rect
     x="18"
     y="24"
     width="1"
     height="1"
     id="rect318" />
  <rect
     x="21"
     y="24"
     width="1"
     height="1"
     id="rect319" />
  <rect
     x="24"
     y="24"
     width="1"
     height="1"
     id="rect320" />
</svg>
