<?xml version='1.0' encoding='UTF-8'?>
<svg width="33px" height="33px" version="1.1" xmlns="http://www.w3.org/2000/svg"><rect x="4px" y="4px" width="1px" height="1px"/><rect x="5px" y="4px" width="1px" height="1px"/><rect x="6px" y="4px" width="1px" height="1px"/><rect x="7px" y="4px" width="1px" height="1px"/><rect x="8px" y="4px" width="1px" height="1px"/><rect x="9px" y="4px" width="1px" height="1px"/><rect x="10px" y="4px" width="1px" height="1px"/><rect x="12px" y="4px" width="1px" height="1px"/><rect x="15px" y="4px" width="1px" height="1px"/><rect x="16px" y="4px" width="1px" height="1px"/><rect x="17px" y="4px" width="1px" height="1px"/><rect x="18px" y="4px" width="1px" height="1px"/><rect x="22px" y="4px" width="1px" height="1px"/><rect x="23px" y="4px" width="1px" height="1px"/><rect x="24px" y="4px" width="1px" height="1px"/><rect x="25px" y="4px" width="1px" height="1px"/><rect x="26px" y="4px" width="1px" height="1px"/><rect x="27px" y="4px" width="1px" height="1px"/><rect x="28px" y="4px" width="1px" height="1px"/><rect x="4px" y="5px" width="1px" height="1px"/><rect x="10px" y="5px" width="1px" height="1px"/><rect x="13px" y="5px" width="1px" height="1px"/><rect x="14px" y="5px" width="1px" height="1px"/><rect x="22px" y="5px" width="1px" height="1px"/><rect x="28px" y="5px" width="1px" height="1px"/><rect x="4px" y="6px" width="1px" height="1px"/><rect x="6px" y="6px" width="1px" height="1px"/><rect x="7px" y="6px" width="1px" height="1px"/><rect x="8px" y="6px" width="1px" height="1px"/><rect x="10px" y="6px" width="1px" height="1px"/><rect x="14px" y="6px" width="1px" height="1px"/><rect x="16px" y="6px" width="1px" height="1px"/><rect x="17px" y="6px" width="1px" height="1px"/><rect x="18px" y="6px" width="1px" height="1px"/><rect x="22px" y="6px" width="1px" height="1px"/><rect x="24px" y="6px" width="1px" height="1px"/><rect x="25px" y="6px" width="1px" height="1px"/><rect x="26px" y="6px" width="1px" height="1px"/><rect x="28px" y="6px" width="1px" height="1px"/><rect x="4px" y="7px" width="1px" height="1px"/><rect x="6px" y="7px" width="1px" height="1px"/><rect x="7px" y="7px" width="1px" height="1px"/><rect x="8px" y="7px" width="1px" height="1px"/><rect x="10px" y="7px" width="1px" height="1px"/><rect x="16px" y="7px" width="1px" height="1px"/><rect x="17px" y="7px" width="1px" height="1px"/><rect x="19px" y="7px" width="1px" height="1px"/><rect x="20px" y="7px" width="1px" height="1px"/><rect x="22px" y="7px" width="1px" height="1px"/><rect x="24px" y="7px" width="1px" height="1px"/><rect x="25px" y="7px" width="1px" height="1px"/><rect x="26px" y="7px" width="1px" height="1px"/><rect x="28px" y="7px" width="1px" height="1px"/><rect x="4px" y="8px" width="1px" height="1px"/><rect x="6px" y="8px" width="1px" height="1px"/><rect x="7px" y="8px" width="1px" height="1px"/><rect x="8px" y="8px" width="1px" height="1px"/><rect x="10px" y="8px" width="1px" height="1px"/><rect x="13px" y="8px" width="1px" height="1px"/><rect x="15px" y="8px" width="1px" height="1px"/><rect x="17px" y="8px" width="1px" height="1px"/><rect x="18px" y="8px" width="1px" height="1px"/><rect x="22px" y="8px" width="1px" height="1px"/><rect x="24px" y="8px" width="1px" height="1px"/><rect x="25px" y="8px" width="1px" height="1px"/><rect x="26px" y="8px" width="1px" height="1px"/><rect x="28px" y="8px" width="1px" height="1px"/><rect x="4px" y="9px" width="1px" height="1px"/><rect x="10px" y="9px" width="1px" height="1px"/><rect x="14px" y="9px" width="1px" height="1px"/><rect x="16px" y="9px" width="1px" height="1px"/><rect x="20px" y="9px" width="1px" height="1px"/><rect x="22px" y="9px" width="1px" height="1px"/><rect x="28px" y="9px" width="1px" height="1px"/><rect x="4px" y="10px" width="1px" height="1px"/><rect x="5px" y="10px" width="1px" height="1px"/><rect x="6px" y="10px" width="1px" height="1px"/><rect x="7px" y="10px" width="1px" height="1px"/><rect x="8px" y="10px" width="1px" height="1px"/><rect x="9px" y="10px" width="1px" height="1px"/><rect x="10px" y="10px" width="1px" height="1px"/><rect x="12px" y="10px" width="1px" height="1px"/><rect x="14px" y="10px" width="1px" height="1px"/><rect x="16px" y="10px" width="1px" height="1px"/><rect x="18px" y="10px" width="1px" height="1px"/><rect x="20px" y="10px" width="1px" height="1px"/><rect x="22px" y="10px" width="1px" height="1px"/><rect x="23px" y="10px" width="1px" height="1px"/><rect x="24px" y="10px" width="1px" height="1px"/><rect x="25px" y="10px" width="1px" height="1px"/><rect x="26px" y="10px" width="1px" height="1px"/><rect x="27px" y="10px" width="1px" height="1px"/><rect x="28px" y="10px" width="1px" height="1px"/><rect x="12px" y="11px" width="1px" height="1px"/><rect x="14px" y="11px" width="1px" height="1px"/><rect x="15px" y="11px" width="1px" height="1px"/><rect x="17px" y="11px" width="1px" height="1px"/><rect x="20px" y="11px" width="1px" height="1px"/><rect x="4px" y="12px" width="1px" height="1px"/><rect x="5px" y="12px" width="1px" height="1px"/><rect x="7px" y="12px" width="1px" height="1px"/><rect x="8px" y="12px" width="1px" height="1px"/><rect x="10px" y="12px" width="1px" height="1px"/><rect x="13px" y="12px" width="1px" height="1px"/><rect x="14px" y="12px" width="1px" height="1px"/><rect x="15px" y="12px" width="1px" height="1px"/><rect x="16px" y="12px" width="1px" height="1px"/><rect x="18px" y="12px" width="1px" height="1px"/><rect x="19px" y="12px" width="1px" height="1px"/><rect x="20px" y="12px" width="1px" height="1px"/><rect x="22px" y="12px" width="1px" height="1px"/><rect x="28px" y="12px" width="1px" height="1px"/><rect x="4px" y="13px" width="1px" height="1px"/><rect x="6px" y="13px" width="1px" height="1px"/><rect x="8px" y="13px" width="1px" height="1px"/><rect x="11px" y="13px" width="1px" height="1px"/><rect x="12px" y="13px" width="1px" height="1px"/><rect x="13px" y="13px" width="1px" height="1px"/><rect x="16px" y="13px" width="1px" height="1px"/><rect x="19px" y="13px" width="1px" height="1px"/><rect x="21px" y="13px" width="1px" height="1px"/><rect x="23px" y="13px" width="1px" height="1px"/><rect x="24px" y="13px" width="1px" height="1px"/><rect x="25px" y="13px" width="1px" height="1px"/><rect x="26px" y="13px" width="1px" height="1px"/><rect x="27px" y="13px" width="1px" height="1px"/><rect x="6px" y="14px" width="1px" height="1px"/><rect x="7px" y="14px" width="1px" height="1px"/><rect x="8px" y="14px" width="1px" height="1px"/><rect x="9px" y="14px" width="1px" height="1px"/><rect x="10px" y="14px" width="1px" height="1px"/><rect x="12px" y="14px" width="1px" height="1px"/><rect x="14px" y="14px" width="1px" height="1px"/><rect x="15px" y="14px" width="1px" height="1px"/><rect x="19px" y="14px" width="1px" height="1px"/><rect x="21px" y="14px" width="1px" height="1px"/><rect x="22px" y="14px" width="1px" height="1px"/><rect x="23px" y="14px" width="1px" height="1px"/><rect x="25px" y="14px" width="1px" height="1px"/><rect x="28px" y="14px" width="1px" height="1px"/><rect x="6px" y="15px" width="1px" height="1px"/><rect x="7px" y="15px" width="1px" height="1px"/><rect x="9px" y="15px" width="1px" height="1px"/><rect x="13px" y="15px" width="1px" height="1px"/><rect x="14px" y="15px" width="1px" height="1px"/><rect x="25px" y="15px" width="1px" height="1px"/><rect x="26px" y="15px" width="1px" height="1px"/><rect x="27px" y="15px" width="1px" height="1px"/><rect x="28px" y="15px" width="1px" height="1px"/><rect x="5px" y="16px" width="1px" height="1px"/><rect x="8px" y="16px" width="1px" height="1px"/><rect x="9px" y="16px" width="1px" height="1px"/><rect x="10px" y="16px" width="1px" height="1px"/><rect x="12px" y="16px" width="1px" height="1px"/><rect x="13px" y="16px" width="1px" height="1px"/><rect x="16px" y="16px" width="1px" height="1px"/><rect x="19px" y="16px" width="1px" height="1px"/><rect x="20px" y="16px" width="1px" height="1px"/><rect x="22px" y="16px" width="1px" height="1px"/><rect x="28px" y="16px" width="1px" height="1px"/><rect x="4px" y="17px" width="1px" height="1px"/><rect x="6px" y="17px" width="1px" height="1px"/><rect x="7px" y="17px" width="1px" height="1px"/><rect x="11px" y="17px" width="1px" height="1px"/><rect x="13px" y="17px" width="1px" height="1px"/><rect x="15px" y="17px" width="1px" height="1px"/><rect x="16px" y="17px" width="1px" height="1px"/><rect x="18px" y="17px" width="1px" height="1px"/><rect x="19px" y="17px" width="1px" height="1px"/><rect x="20px" y="17px" width="1px" height="1px"/><rect x="21px" y="17px" width="1px" height="1px"/><rect x="24px" y="17px" width="1px" height="1px"/><rect x="27px" y="17px" width="1px" height="1px"/><rect x="4px" y="18px" width="1px" height="1px"/><rect x="5px" y="18px" width="1px" height="1px"/><rect x="8px" y="18px" width="1px" height="1px"/><rect x="10px" y="18px" width="1px" height="1px"/><rect x="12px" y="18px" width="1px" height="1px"/><rect x="14px" y="18px" width="1px" height="1px"/><rect x="17px" y="18px" width="1px" height="1px"/><rect x="19px" y="18px" width="1px" height="1px"/><rect x="20px" y="18px" width="1px" height="1px"/><rect x="21px" y="18px" width="1px" height="1px"/><rect x="22px" y="18px" width="1px" height="1px"/><rect x="24px" y="18px" width="1px" height="1px"/><rect x="25px" y="18px" width="1px" height="1px"/><rect x="26px" y="18px" width="1px" height="1px"/><rect x="27px" y="18px" width="1px" height="1px"/><rect x="28px" y="18px" width="1px" height="1px"/><rect x="4px" y="19px" width="1px" height="1px"/><rect x="8px" y="19px" width="1px" height="1px"/><rect x="9px" y="19px" width="1px" height="1px"/><rect x="13px" y="19px" width="1px" height="1px"/><rect x="14px" y="19px" width="1px" height="1px"/><rect x="15px" y="19px" width="1px" height="1px"/><rect x="18px" y="19px" width="1px" height="1px"/><rect x="19px" y="19px" width="1px" height="1px"/><rect x="20px" y="19px" width="1px" height="1px"/><rect x="22px" y="19px" width="1px" height="1px"/><rect x="23px" y="19px" width="1px" height="1px"/><rect x="25px" y="19px" width="1px" height="1px"/><rect x="26px" y="19px" width="1px" height="1px"/><rect x="28px" y="19px" width="1px" height="1px"/><rect x="4px" y="20px" width="1px" height="1px"/><rect x="8px" y="20px" width="1px" height="1px"/><rect x="9px" y="20px" width="1px" height="1px"/><rect x="10px" y="20px" width="1px" height="1px"/><rect x="13px" y="20px" width="1px" height="1px"/><rect x="16px" y="20px" width="1px" height="1px"/><rect x="17px" y="20px" width="1px" height="1px"/><rect x="19px" y="20px" width="1px" height="1px"/><rect x="20px" y="20px" width="1px" height="1px"/><rect x="21px" y="20px" width="1px" height="1px"/><rect x="22px" y="20px" width="1px" height="1px"/><rect x="23px" y="20px" width="1px" height="1px"/><rect x="24px" y="20px" width="1px" height="1px"/><rect x="26px" y="20px" width="1px" height="1px"/><rect x="27px" y="20px" width="1px" height="1px"/><rect x="12px" y="21px" width="1px" height="1px"/><rect x="13px" y="21px" width="1px" height="1px"/><rect x="18px" y="21px" width="1px" height="1px"/><rect x="19px" y="21px" width="1px" height="1px"/><rect x="20px" y="21px" width="1px" height="1px"/><rect x="24px" y="21px" width="1px" height="1px"/><rect x="26px" y="21px" width="1px" height="1px"/><rect x="27px" y="21px" width="1px" height="1px"/><rect x="4px" y="22px" width="1px" height="1px"/><rect x="5px" y="22px" width="1px" height="1px"/><rect x="6px" y="22px" width="1px" height="1px"/><rect x="7px" y="22px" width="1px" height="1px"/><rect x="8px" y="22px" width="1px" height="1px"/><rect x="9px" y="22px" width="1px" height="1px"/><rect x="10px" y="22px" width="1px" height="1px"/><rect x="13px" y="22px" width="1px" height="1px"/><rect x="14px" y="22px" width="1px" height="1px"/><rect x="15px" y="22px" width="1px" height="1px"/><rect x="17px" y="22px" width="1px" height="1px"/><rect x="20px" y="22px" width="1px" height="1px"/><rect x="22px" y="22px" width="1px" height="1px"/><rect x="24px" y="22px" width="1px" height="1px"/><rect x="28px" y="22px" width="1px" height="1px"/><rect x="4px" y="23px" width="1px" height="1px"/><rect x="10px" y="23px" width="1px" height="1px"/><rect x="16px" y="23px" width="1px" height="1px"/><rect x="17px" y="23px" width="1px" height="1px"/><rect x="19px" y="23px" width="1px" height="1px"/><rect x="20px" y="23px" width="1px" height="1px"/><rect x="24px" y="23px" width="1px" height="1px"/><rect x="27px" y="23px" width="1px" height="1px"/><rect x="4px" y="24px" width="1px" height="1px"/><rect x="6px" y="24px" width="1px" height="1px"/><rect x="7px" y="24px" width="1px" height="1px"/><rect x="8px" y="24px" width="1px" height="1px"/><rect x="10px" y="24px" width="1px" height="1px"/><rect x="12px" y="24px" width="1px" height="1px"/><rect x="13px" y="24px" width="1px" height="1px"/><rect x="15px" y="24px" width="1px" height="1px"/><rect x="16px" y="24px" width="1px" height="1px"/><rect x="18px" y="24px" width="1px" height="1px"/><rect x="19px" y="24px" width="1px" height="1px"/><rect x="20px" y="24px" width="1px" height="1px"/><rect x="21px" y="24px" width="1px" height="1px"/><rect x="22px" y="24px" width="1px" height="1px"/><rect x="23px" y="24px" width="1px" height="1px"/><rect x="24px" y="24px" width="1px" height="1px"/><rect x="4px" y="25px" width="1px" height="1px"/><rect x="6px" y="25px" width="1px" height="1px"/><rect x="7px" y="25px" width="1px" height="1px"/><rect x="8px" y="25px" width="1px" height="1px"/><rect x="10px" y="25px" width="1px" height="1px"/><rect x="12px" y="25px" width="1px" height="1px"/><rect x="15px" y="25px" width="1px" height="1px"/><rect x="18px" y="25px" width="1px" height="1px"/><rect x="21px" y="25px" width="1px" height="1px"/><rect x="22px" y="25px" width="1px" height="1px"/><rect x="27px" y="25px" width="1px" height="1px"/><rect x="28px" y="25px" width="1px" height="1px"/><rect x="4px" y="26px" width="1px" height="1px"/><rect x="6px" y="26px" width="1px" height="1px"/><rect x="7px" y="26px" width="1px" height="1px"/><rect x="8px" y="26px" width="1px" height="1px"/><rect x="10px" y="26px" width="1px" height="1px"/><rect x="14px" y="26px" width="1px" height="1px"/><rect x="15px" y="26px" width="1px" height="1px"/><rect x="16px" y="26px" width="1px" height="1px"/><rect x="17px" y="26px" width="1px" height="1px"/><rect x="18px" y="26px" width="1px" height="1px"/><rect x="19px" y="26px" width="1px" height="1px"/><rect x="24px" y="26px" width="1px" height="1px"/><rect x="25px" y="26px" width="1px" height="1px"/><rect x="26px" y="26px" width="1px" height="1px"/><rect x="27px" y="26px" width="1px" height="1px"/><rect x="28px" y="26px" width="1px" height="1px"/><rect x="4px" y="27px" width="1px" height="1px"/><rect x="10px" y="27px" width="1px" height="1px"/><rect x="12px" y="27px" width="1px" height="1px"/><rect x="13px" y="27px" width="1px" height="1px"/><rect x="19px" y="27px" width="1px" height="1px"/><rect x="22px" y="27px" width="1px" height="1px"/><rect x="23px" y="27px" width="1px" height="1px"/><rect x="24px" y="27px" width="1px" height="1px"/><rect x="26px" y="27px" width="1px" height="1px"/><rect x="27px" y="27px" width="1px" height="1px"/><rect x="28px" y="27px" width="1px" height="1px"/><rect x="4px" y="28px" width="1px" height="1px"/><rect x="5px" y="28px" width="1px" height="1px"/><rect x="6px" y="28px" width="1px" height="1px"/><rect x="7px" y="28px" width="1px" height="1px"/><rect x="8px" y="28px" width="1px" height="1px"/><rect x="9px" y="28px" width="1px" height="1px"/><rect x="10px" y="28px" width="1px" height="1px"/><rect x="12px" y="28px" width="1px" height="1px"/><rect x="13px" y="28px" width="1px" height="1px"/><rect x="16px" y="28px" width="1px" height="1px"/><rect x="18px" y="28px" width="1px" height="1px"/><rect x="20px" y="28px" width="1px" height="1px"/><rect x="21px" y="28px" width="1px" height="1px"/><rect x="22px" y="28px" width="1px" height="1px"/><rect x="25px" y="28px" width="1px" height="1px"/><rect x="28px" y="28px" width="1px" height="1px"/></svg>
